<!-- Generated by IcoMoon.io -->
<svg version="1.1" xmlns="http://www.w3.org/2000/svg" width="32" height="32" viewBox="0 0 32 32">
<title>arx</title>
<path d="M15.821 7.386c1.504-1.754 3.021-2.957 4.55-3.616 0.294-0.134 0.704-0.275 1.229-0.429 0.326-0.109 0.858-0.224 1.6-0.358 0.339-0.032 0.634 0.186 0.87 0.653 0.211 0.416 0.32 0.922 0.32 1.504 0 0.614-0.083 1.101-0.243 1.459s-0.422 0.57-0.787 0.627c-0.294 0.045-0.595 0.083-0.89 0.115-1.299 0.378-2.278 0.781-2.925 1.216-0.518 0.346-1.094 0.8-1.722 1.37l2.246 2.989 1.85 2.893 2.054 3.642c0.224 0.39 0.333 0.87 0.333 1.44 0 0.595-0.122 1.12-0.365 1.568s-0.518 0.672-0.826 0.672c-0.269 0-0.493-0.179-0.685-0.538-0.698-1.318-1.459-2.656-2.272-4-0.403-0.678-1.030-1.651-1.882-2.925l-2.515-3.258c-2.592 3.174-5.453 12.934-6.848 18.042-0.192 0.704-0.493 1.056-0.915 1.056-0.282 0-0.525-0.186-0.736-0.55s-0.314-0.87-0.314-1.517c0-0.314 0.896-6.253 0.954-6.579 0.89-3.546 2.035-6.541 3.437-8.979 0.646-1.126 1.466-2.438 2.458-3.955-1.766-2.093-3.603-3.872-5.51-5.325-0.442-0.333-0.659-0.998-0.659-1.997 0-0.48 0.096-0.954 0.288-1.414 0.237-0.467 0.48-0.698 0.73-0.698 1.818 0.896 4.211 3.194 7.174 6.893z"></path>
</svg>
