<!-- Generated by IcoMoon.io -->
<svg version="1.1" xmlns="http://www.w3.org/2000/svg" width="32" height="32" viewBox="0 0 32 32">
<title>folder</title>
<path d="M29.679 8.036c-0.786-0.786-1.727-1.179-2.821-1.179h-12v-0.571c0-1.095-0.393-2.036-1.179-2.821s-1.727-1.179-2.821-1.179h-5.714c-1.095 0-2.036 0.393-2.821 1.179s-1.179 1.727-1.179 2.821v17.143c0 1.095 0.393 2.036 1.179 2.821s1.727 1.179 2.821 1.179h21.714c1.095 0 2.036-0.393 2.821-1.179s1.179-1.727 1.179-2.821v-12.571c0-1.095-0.393-2.036-1.179-2.821zM17.643 14.132l1.268 2.037 1.409 2.561c0.152 0.273 0.229 0.611 0.229 1.011 0 0.421-0.084 0.789-0.25 1.105-0.168 0.316-0.355 0.475-0.564 0.475-0.182 0-0.339-0.127-0.47-0.38-0.48-0.929-1-1.866-1.557-2.814-0.277-0.475-0.707-1.161-1.291-2.057l-1.725-2.291c-1.777 2.234-3.737 9.098-4.696 12.693-0.13 0.495-0.339 0.743-0.627 0.743-0.193 0-0.361-0.129-0.505-0.387-0.143-0.257-0.216-0.614-0.216-1.066 0-0.221 0.614-4.398 0.655-4.63 0.611-2.496 1.396-4.604 2.357-6.32 0.445-0.791 1.005-1.718 1.684-2.782-1.209-1.475-2.47-2.723-3.779-3.745-0.302-0.232-0.454-0.7-0.454-1.405 0-0.338 0.066-0.67 0.195-0.995 0.162-0.327 0.329-0.489 0.502-0.489 1.252 0.63 2.893 2.248 4.921 4.85 1.032-1.232 2.073-2.080 3.121-2.545 0.204-0.095 0.484-0.195 0.845-0.3 0.225-0.075 0.589-0.159 1.096-0.254 0.234-0.021 0.432 0.132 0.595 0.459 0.145 0.295 0.22 0.648 0.22 1.059 0 0.432-0.055 0.773-0.166 1.027-0.109 0.252-0.289 0.4-0.541 0.443-0.204 0.030-0.407 0.057-0.611 0.079-0.893 0.264-1.561 0.548-2.004 0.854-0.355 0.243-0.75 0.563-1.182 0.964l1.541 2.102z"></path>
</svg>
