<!-- Generated by IcoMoon.io -->
<svg version="1.1" xmlns="http://www.w3.org/2000/svg" width="32" height="32" viewBox="0 0 32 32">
<title>arxdrive</title>
<path d="M0.1 16.15c0.050-0.15 0.1-0.3 0.15-0.45 0.45-1.9 1.6-3.15 3.45-3.75 0.25-0.1 0.3-0.2 0.25-0.45-0.3-1.75 0-3.45 0.9-5 1.050-1.85 2.6-3 4.65-3.45 2.25-0.5 4.3 0 6.15 1.4 0.8 0.6 1.4 1.4 1.85 2.25 0.050 0.1 0.1 0.2 0.2 0.3 0.35-0.15 0.7-0.3 1.050-0.45 2.4-0.75 4.55-0.25 6.35 1.5 0.85 0.85 1.4 1.9 1.65 3.1 0.1 0.5 0.1 0.5 0.6 0.55s0.95 0.15 1.4 0.3c1.8 0.7 2.85 2.050 3.15 3.95 0.4 2.7-1.35 5.15-4 5.65-0.55 0.1-1.1 0.1-1.65 0.1-2.050 0-4.1 0-6.1-0.050-0.2 0-0.3 0.050-0.35 0.3-0.1 1.35-0.5 2.6-1.35 3.65-1.1 1.35-2.55 2.15-4.3 2.3-3.25 0.3-5.8-1.95-6.45-4.55-0.1-0.45-0.2-0.95-0.2-1.4 0-0.3-0.15-0.3-0.4-0.3-0.65 0-1.3 0.050-1.95 0.050-1.4 0-2.55-0.5-3.55-1.5-0.8-0.7-1.25-1.65-1.4-2.7 0-0.1-0.050-0.15-0.1-0.2 0-0.4 0-0.8 0-1.15zM14.85 11.9c-0.1 0.15-0.2 0.3-0.3 0.5-1.25 1.9-2.4 3.85-3.050 6-0.3 0.95-0.6 1.9-0.75 2.9-0.25 1.3-0.45 2.65-0.6 4-0.050 0.4 0.1 0.8 0.2 1.2 0.1 0.25 0.3 0.5 0.7 0.45 0.050 0 0.15 0.050 0.2 0.1 0.35 0.3 0.7 0.25 0.9-0.15 0.1-0.2 0.15-0.4 0.25-0.6 0.7-2.3 1.4-4.6 2.15-6.9 0.4-1.25 1-2.5 1.5-3.75 0.2-0.4 0.45-0.8 0.7-1.25 0.35 0.4 0.65 0.75 0.9 1.1 1.15 1.55 2.15 3.25 3 4.95 0.3 0.65 0.95 0.65 1.4 0.95 0.050 0.050 0.25-0.050 0.35-0.1 0.15-0.1 0.3-0.25 0.35-0.4 0.3-0.7 0.35-1.45 0-2.15-0.25-0.5-0.55-1.050-0.85-1.55-0.75-1.2-1.5-2.4-2.3-3.6-0.3-0.5-0.7-0.95-1.050-1.4 0.050-0.050 0.050-0.1 0.1-0.1 1-0.9 2.15-1.5 3.5-1.7 0.45-0.050 0.75-0.25 0.8-0.7 0.050-0.3 0.1-0.65 0.1-0.95 0-0.4-0.050-0.9-0.4-1.15s-0.75-0.4-1.15-0.6c-0.050-0.050-0.15 0-0.2 0-1.4 0.25-2.65 0.8-3.7 1.75-0.35 0.3-0.65 0.6-1 0.9-0.35-0.35-0.65-0.75-1-1.1s-0.65-0.75-1-1.050c-0.65-0.6-1.3-1.15-1.95-1.7-0.25-0.2-0.6-0.25-0.9-0.4-0.45-0.25-0.65-0.2-0.9 0.25-0.55 1.050-0.3 2.15 0.65 2.9 1.2 1 2.3 2.1 3.35 3.35z"></path>
</svg>
