<?xml version="1.0" encoding="UTF-8" standalone="no"?>
<!-- Generator: Adobe Illustrator 19.0.0, SVG Export Plug-In . SVG Version: 6.00 Build 0)  -->

<svg
   xmlns:dc="http://purl.org/dc/elements/1.1/"
   xmlns:cc="http://creativecommons.org/ns#"
   xmlns:rdf="http://www.w3.org/1999/02/22-rdf-syntax-ns#"
   xmlns:svg="http://www.w3.org/2000/svg"
   xmlns="http://www.w3.org/2000/svg"
   xmlns:sodipodi="http://sodipodi.sourceforge.net/DTD/sodipodi-0.dtd"
   xmlns:inkscape="http://www.inkscape.org/namespaces/inkscape"
   version="1.1"
   x="0px"
   y="0px"
   viewBox="0 0 288.10001 393.60001"
   xml:space="preserve"
   id="svg4546"
   sodipodi:docname="arxivarNextHelper3GRIGIO.svg"
   width="288.10001"
   height="393.60001"
   inkscape:version="0.92.1 r15371"><metadata
     id="metadata4552"><rdf:RDF><cc:Work
         rdf:about=""><dc:format>image/svg+xml</dc:format><dc:type
           rdf:resource="http://purl.org/dc/dcmitype/StillImage" /><dc:title></dc:title></cc:Work></rdf:RDF></metadata><defs
     id="defs4550" /><sodipodi:namedview
     pagecolor="#ffffff"
     bordercolor="#666666"
     borderopacity="1"
     objecttolerance="10"
     gridtolerance="10"
     guidetolerance="10"
     inkscape:pageopacity="0"
     inkscape:pageshadow="2"
     inkscape:window-width="1920"
     inkscape:window-height="1018"
     id="namedview4548"
     showgrid="false"
     inkscape:zoom="1.1166395"
     inkscape:cx="500.02038"
     inkscape:cy="85.495392"
     inkscape:window-x="-8"
     inkscape:window-y="-8"
     inkscape:window-maximized="1"
     inkscape:current-layer="svg4546" /><style
     type="text/css"
     id="style4532">
	.st0{fill:#FFFFFF;stroke:#000000;stroke-width:2;stroke-miterlimit:10;}
	.st1{stroke:#FFFFFF;stroke-miterlimit:10;}
</style><g
     id="g5140"><g
       id="g5124"><g
         id="g5109"
         transform="translate(-268.8,-75.7)"><g
           id="Layer_2"><path
             style="color:#000000;font-style:normal;font-variant:normal;font-weight:normal;font-stretch:normal;font-size:medium;line-height:normal;font-family:sans-serif;font-variant-ligatures:normal;font-variant-position:normal;font-variant-caps:normal;font-variant-numeric:normal;font-variant-alternates:normal;font-feature-settings:normal;text-indent:0;text-align:start;text-decoration:none;text-decoration-line:none;text-decoration-style:solid;text-decoration-color:#000000;letter-spacing:normal;word-spacing:normal;text-transform:none;writing-mode:lr-tb;direction:ltr;text-orientation:mixed;dominant-baseline:auto;baseline-shift:baseline;text-anchor:start;white-space:normal;shape-padding:0;clip-rule:nonzero;display:inline;overflow:visible;visibility:visible;opacity:1;isolation:auto;mix-blend-mode:normal;color-interpolation:sRGB;color-interpolation-filters:linearRGB;solid-color:#000000;solid-opacity:1;vector-effect:none;fill:#444444;fill-opacity:1;fill-rule:nonzero;stroke:none;stroke-width:2.29999995;stroke-linecap:butt;stroke-linejoin:miter;stroke-miterlimit:10;stroke-dasharray:none;stroke-dashoffset:0;stroke-opacity:1;color-rendering:auto;image-rendering:auto;shape-rendering:auto;text-rendering:auto;enable-background:accumulate"
             d="m 412.80078,104.94922 c -75.22073,0 -136.15039,60.92966 -136.15039,136.15039 0,75.22073 60.92966,136.15039 136.15039,136.15039 75.22073,0 136.14844,-60.92966 136.14844,-136.15039 0,-75.22073 -60.92771,-136.15039 -136.14844,-136.15039 z m 0,2.30078 c 73.97927,0 133.84961,59.87034 133.84961,133.84961 0,73.97927 -59.87034,133.84961 -133.84961,133.84961 -73.97927,0 -133.85156,-59.87034 -133.85156,-133.84961 0,-73.97927 59.87229,-133.84961 133.85156,-133.84961 z m 0,42.69922 c -50.32166,0 -91.15039,40.82873 -91.15039,91.15039 0,50.32166 40.82873,91.15039 91.15039,91.15039 50.32166,0 91.14844,-40.82873 91.14844,-91.15039 0,-50.32166 -40.82678,-91.15039 -91.14844,-91.15039 z m 0,2.30078 c 49.07834,0 88.84961,39.77127 88.84961,88.84961 0,49.07834 -39.77127,88.84961 -88.84961,88.84961 -49.07834,0 -88.85156,-39.77127 -88.85156,-88.84961 0,-49.07834 39.77322,-88.84961 88.85156,-88.84961 z"
             id="XMLID_15_"
             inkscape:connector-curvature="0" /><path
             d="m 435.3,153.3 c 0,3.7 -3,6.8 -6.8,6.8 H 397 c -3.7,0 -6.8,-3 -6.8,-6.8 v -49.5 c 0,-3.7 3,-6.8 6.8,-6.8 h 31.5 c 3.7,0 6.8,3 6.8,6.8 z"
             id="XMLID_11_"
             inkscape:connector-curvature="0"
             style="fill:#444444;fill-opacity:1" /><path
             d="m 428.6,97.1 h -6.8 c 3.7,0 6.8,3 6.8,6.8 v 49.5 c 0,3.7 -3,6.8 -6.8,6.8 h 6.8 c 3.7,0 6.8,-3 6.8,-6.8 v -49.5 c -0.1,-3.8 -3.1,-6.8 -6.8,-6.8 z"
             id="XMLID_10_"
             inkscape:connector-curvature="0"
             style="fill:#444444;fill-opacity:1" /><path
             d="m 435.3,378.3 c 0,3.7 -3,6.8 -6.8,6.8 H 397 c -3.7,0 -6.8,-3 -6.8,-6.8 v -49.5 c 0,-3.7 3,-6.8 6.8,-6.8 h 31.5 c 3.7,0 6.8,3 6.8,6.8 z"
             id="XMLID_9_"
             inkscape:connector-curvature="0"
             style="fill:#444444;fill-opacity:1" /><path
             d="m 428.6,322.1 h -6.8 c 3.7,0 6.8,3 6.8,6.8 v 49.5 c 0,3.7 -3,6.8 -6.8,6.8 h 6.8 c 3.7,0 6.8,-3 6.8,-6.8 v -49.5 c -0.1,-3.8 -3.1,-6.8 -6.8,-6.8 z"
             id="XMLID_8_"
             inkscape:connector-curvature="0"
             style="fill:#444444;fill-opacity:1" /><path
             d="m 325.1,218.6 c 3.7,0 6.8,3 6.8,6.8 v 31.5 c 0,3.7 -3,6.8 -6.8,6.8 h -49.5 c -3.7,0 -6.8,-3 -6.8,-6.8 v -31.5 c 0,-3.7 3,-6.8 6.8,-6.8 z"
             id="XMLID_7_"
             inkscape:connector-curvature="0"
             style="fill:#444444;fill-opacity:1" /><path
             d="m 325.1,218.6 h -6.8 c 3.7,0 6.8,3 6.8,6.8 v 31.5 c 0,3.7 -3,6.8 -6.8,6.8 h 6.8 c 3.7,0 6.8,-3 6.8,-6.8 v -31.5 c -0.1,-3.8 -3.1,-6.8 -6.8,-6.8 z"
             id="XMLID_6_"
             inkscape:connector-curvature="0"
             style="fill:#444444;fill-opacity:1" /><path
             d="m 550.1,218.6 c 3.7,0 6.8,3 6.8,6.8 v 31.5 c 0,3.7 -3,6.8 -6.8,6.8 h -49.5 c -3.7,0 -6.8,-3 -6.8,-6.8 v -31.5 c 0,-3.7 3,-6.8 6.8,-6.8 z"
             id="XMLID_5_"
             inkscape:connector-curvature="0"
             style="fill:#444444;fill-opacity:1" /><path
             d="m 550.1,218.6 h -6.8 c 3.7,0 6.8,3 6.8,6.8 v 31.5 c 0,3.7 -3,6.8 -6.8,6.8 h 6.8 c 3.7,0 6.8,-3 6.8,-6.8 v -31.5 c -0.1,-3.8 -3.1,-6.8 -6.8,-6.8 z"
             id="XMLID_4_"
             inkscape:connector-curvature="0"
             style="fill:#444444;fill-opacity:1" /></g><g
           id="Layer_1"><path
             d="m 414.7,163.5 c 19.1,-22.2 38.3,-37.4 57.6,-45.8 3.8,-1.7 8.9,-3.5 15.6,-5.4 4.1,-1.3 10.9,-2.9 20.2,-4.6 4.3,-0.4 8,2.4 11,8.2 2.7,5.3 4.1,11.7 4.1,19 0,7.8 -1,13.9 -3.1,18.5 -2,4.5 -5.3,7.2 -10,8 -3.8,0.6 -7.5,1 -11.3,1.4 -16.5,4.7 -28.8,9.9 -37,15.4 -6.6,4.4 -13.8,10.1 -21.8,17.3 l 28.4,37.8 23.4,36.7 26,46 c 2.8,4.9 4.2,11 4.2,18.2 0,7.6 -1.5,14.2 -4.6,19.9 -3.1,5.7 -6.5,8.5 -10.4,8.5 -3.4,0 -6.3,-2.3 -8.7,-6.8 -8.9,-16.7 -18.5,-33.6 -28.7,-50.6 -5.1,-8.5 -13.1,-20.9 -23.9,-37 L 414,227.1 c -32.8,40.2 -69,163.7 -86.7,228.3 -2.4,8.9 -6.3,13.4 -11.6,13.4 -3.6,0 -6.7,-2.3 -9.3,-7 -2.6,-4.6 -4,-11 -4,-19.2 0,-4 11.3,-79.1 12.1,-83.3 11.3,-44.9 25.8,-82.8 43.5,-113.7 8.2,-14.2 18.6,-30.9 31.1,-50 -22.3,-26.5 -45.6,-49 -69.7,-67.4 -5.6,-4.2 -8.4,-12.6 -8.4,-25.3 0,-6.1 1.2,-12 3.6,-17.9 3,-5.9 6.1,-8.8 9.2,-8.8 23.2,11.4 53.4,40.5 90.9,87.3 z"
             class="st1"
             id="XMLID_2_"
             inkscape:connector-curvature="0"
             style="stroke:#444444;stroke-miterlimit:10;stroke-opacity:0;fill:#444444;fill-opacity:1" /></g></g></g></g></svg>