<?xml version="1.0" encoding="UTF-8" standalone="no"?>
<!-- Created with Inkscape (http://www.inkscape.org/) -->

<svg
   xmlns:dc="http://purl.org/dc/elements/1.1/"
   xmlns:cc="http://creativecommons.org/ns#"
   xmlns:rdf="http://www.w3.org/1999/02/22-rdf-syntax-ns#"
   xmlns:svg="http://www.w3.org/2000/svg"
   xmlns="http://www.w3.org/2000/svg"
   xmlns:sodipodi="http://sodipodi.sourceforge.net/DTD/sodipodi-0.dtd"
   xmlns:inkscape="http://www.inkscape.org/namespaces/inkscape"
   width="11.064036mm"
   height="12.384683mm"
   viewBox="0 0 11.064036 12.384683"
   version="1.1"
   id="svg8"
   inkscape:version="0.92.1 r15371"
   sodipodi:docname="associate-document-3.svg">
  <defs
     id="defs2" />
  <sodipodi:namedview
     id="base"
     pagecolor="#ffffff"
     bordercolor="#666666"
     borderopacity="1.0"
     inkscape:pageopacity="0.0"
     inkscape:pageshadow="2"
     inkscape:zoom="5.6"
     inkscape:cx="26.258434"
     inkscape:cy="-6.5131596"
     inkscape:document-units="mm"
     inkscape:current-layer="layer8"
     showgrid="false"
     inkscape:window-width="1920"
     inkscape:window-height="1018"
     inkscape:window-x="-8"
     inkscape:window-y="-8"
     inkscape:window-maximized="1" />
  <metadata
     id="metadata5">
    <rdf:RDF>
      <cc:Work
         rdf:about="">
        <dc:format>image/svg+xml</dc:format>
        <dc:type
           rdf:resource="http://purl.org/dc/dcmitype/StillImage" />
        <dc:title></dc:title>
      </cc:Work>
    </rdf:RDF>
  </metadata>
  <text
     xml:space="preserve"
     style="font-style:normal;font-variant:normal;font-weight:normal;font-stretch:normal;font-size:10.58333302px;line-height:125%;font-family:FontAwesome;-inkscape-font-specification:FontAwesome;letter-spacing:0px;word-spacing:0px;fill:#000000;fill-opacity:1;stroke:none;stroke-width:0.26458332px;stroke-linecap:butt;stroke-linejoin:miter;stroke-opacity:1"
     x="37.589031"
     y="39.958004"
     id="text59"><tspan
       sodipodi:role="line"
       id="tspan57"
       x="37.589031"
       y="50.352348"
       style="fill:#000000;stroke-width:0.26458332px" /></text>
  <g
     inkscape:groupmode="layer"
     id="layer1"
     inkscape:label="Layer 1"
     style="display:none"
     transform="translate(10.822942,21.35937)" />
  <g
     inkscape:groupmode="layer"
     id="layer3"
     inkscape:label="Layer 2"
     style="display:none"
     transform="translate(10.822942,21.35937)" />
  <g
     inkscape:groupmode="layer"
     id="layer4"
     inkscape:label="Layer 3"
     transform="translate(10.822942,21.35937)"
     style="display:none">
    <path
       style="font-style:normal;font-variant:normal;font-weight:normal;font-stretch:normal;font-size:10.58333302px;line-height:125%;font-family:FontAwesome;-inkscape-font-specification:FontAwesome;letter-spacing:0px;word-spacing:0px;fill:#000000;fill-opacity:1;stroke:none;stroke-width:0.26458332px;stroke-linecap:butt;stroke-linejoin:miter;stroke-opacity:1"
       d="m -11.652519,-20.599776 c -0.448846,0 -0.879976,0.171492 -1.198893,0.490409 l -0.868164,0.861963 c -0.318917,0.313012 -0.501778,0.750047 -0.501778,1.198893 0,0.454753 0.17127,0.880272 0.496094,1.205095 l 1.228348,1.228349 c 0.285183,0.285183 0.664914,0.455695 1.062985,0.488859 v -1.151351 c -0.0967,-0.02333 -0.188187,-0.06881 -0.259933,-0.14056 l -1.228349,-1.228866 c -0.106305,-0.106305 -0.165364,-0.247973 -0.165364,-0.401526 0,-0.147646 0.05906,-0.289018 0.165364,-0.395324 l 0.868164,-0.86248 c 0.106306,-0.1004 0.25388,-0.15968 0.401526,-0.15968 0.147647,0 0.295737,0.05906 0.402043,0.165364 l 1.058334,1.063502 h 1.3565058 c -0.081459,-0.23729 -0.2134817,-0.456361 -0.3953248,-0.638204 l -1.216463,-1.222148 c -0.318917,-0.324823 -0.750342,-0.502295 -1.205095,-0.502295 z m 4.5656132,4.213696 v 1.267106 l 1.2045775,1.204578 c 0.1063059,0.106306 0.1653646,0.247973 0.1653646,0.401526 0,0.147647 -0.059059,0.289535 -0.1653646,0.395841 l -0.868164,0.86248 c -0.1063059,0.1004 -0.2538788,0.153479 -0.4015259,0.153479 -0.147647,0 -0.2952199,-0.05337 -0.4015258,-0.15968 l -0.9637654,-0.968416 H -9.934794 c 0.082635,0.200933 0.2036649,0.385565 0.3612182,0.543119 l 1.2169801,1.222664 c 0.3189174,0.324823 0.749825,0.502295 1.2045775,0.502295 0.4488469,0 0.8799759,-0.171492 1.1988933,-0.490409 l 0.868164,-0.86248 c 0.3189174,-0.313011 0.5017781,-0.750046 0.5017781,-1.198893 0,-0.454753 -0.1712704,-0.879754 -0.4960938,-1.204578 l -1.2283487,-1.228348 c -0.2163781,-0.216379 -0.4873578,-0.365469 -0.7792805,-0.440284 z"
       id="text4502"
       inkscape:connector-curvature="0" />
    <g
       id="text4510"
       style="font-style:normal;font-variant:normal;font-weight:normal;font-stretch:normal;font-size:5.38616037px;line-height:125%;font-family:FontAwesome;-inkscape-font-specification:FontAwesome;letter-spacing:0px;word-spacing:0px;display:inline;fill:#000000;fill-opacity:1;stroke:none;stroke-width:0.134654px;stroke-linecap:butt;stroke-linejoin:miter;stroke-opacity:1"
       aria-label="">
      <path
         inkscape:connector-curvature="0"
         id="path4544"
         style="stroke-width:0.134654px"
         d="m -7.1024519,-17.142444 -0.937769,-0.937769 c -0.1112098,-0.11121 -0.3336294,-0.204385 -0.4929299,-0.204385 h -2.6930802 c -0.1593,0 -0.288544,0.129243 -0.288544,0.288544 v 4.809072 c 0,0.1593 0.129244,0.288544 0.288544,0.288544 h 4.0396203 c 0.1593005,0 0.2885443,-0.129244 0.2885443,-0.288544 v -3.462532 c 0,-0.159301 -0.093176,-0.38172 -0.2043855,-0.49293 z m -1.3345174,-0.733383 c 0.051096,0.01803 0.1021927,0.04509 0.1232324,0.06612 l 0.9407747,0.940775 c 0.02104,0.02104 0.048091,0.07214 0.066125,0.123232 H -8.436969 Z m 1.1541772,4.592663 H -11.13005 v -4.616709 h 2.3083549 v 1.250359 c 0,0.1593 0.1292438,0.288544 0.2885443,0.288544 h 1.2503587 z" />
    </g>
    <g
       id="text4520"
       style="font-style:normal;font-variant:normal;font-weight:normal;font-stretch:normal;font-size:10.58333302px;line-height:125%;font-family:FontAwesome;-inkscape-font-specification:FontAwesome;letter-spacing:0px;word-spacing:0px;fill:#000000;fill-opacity:1;stroke:none;stroke-width:0.26458332px;stroke-linecap:butt;stroke-linejoin:miter;stroke-opacity:1"
       aria-label="">
      <path
         inkscape:connector-curvature="0"
         id="path4547"
         style="stroke-width:0.26458332px"
         d="m 4.0159984,-16.101788 c 0,-0.4016 -0.2657645,-0.755952 -0.6909877,-0.755952 h -4.15773801 l 1.7304222,-1.730423 c 0.14174111,-0.141741 0.22442331,-0.336635 0.22442331,-0.537434 0,-0.2008 -0.082682,-0.395694 -0.22442331,-0.537435 l -0.44294084,-0.437035 c -0.14174107,-0.141741 -0.33072916,-0.224424 -0.531529,-0.224424 -0.20079985,0 -0.39569381,0.08268 -0.53743488,0.224424 l -3.84472647,3.83882 c -0.1358352,0.141741 -0.2185175,0.336635 -0.2185175,0.537435 0,0.2008 0.082682,0.395694 0.2185175,0.531529 l 3.84472647,3.850632 c 0.14174107,0.135836 0.33663503,0.218518 0.53743488,0.218518 0.20079984,0 0.39569381,-0.08268 0.531529,-0.218518 l 0.44294084,-0.448846 c 0.14174111,-0.135835 0.22442331,-0.330729 0.22442331,-0.531529 0,-0.2008 -0.082682,-0.395694 -0.22442331,-0.531529 l -1.7304222,-1.736328 H 3.3250107 c 0.4252232,0 0.6909877,-0.354353 0.6909877,-0.755953 z" />
    </g>
  </g>
  <g
     inkscape:groupmode="layer"
     id="layer5"
     inkscape:label="Layer 4"
     style="display:inline"
     transform="translate(-3.3984116,0.75959379)" />
  <g
     inkscape:groupmode="layer"
     id="layer6"
     inkscape:label="Layer 5"
     transform="translate(-3.3984116,0.75959379)" />
  <g
     inkscape:groupmode="layer"
     id="layer8"
     inkscape:label="Layer 7"
     transform="translate(0.71207925,0.34057205)">
    <g
       id="g5152">
      <g
         transform="matrix(0.77704474,0,0,0.77704474,0.91670266,5.9128013)"
         aria-label=""
         style="font-style:normal;font-variant:normal;font-weight:normal;font-stretch:normal;font-size:5.9688735px;line-height:125%;font-family:FontAwesome;-inkscape-font-specification:FontAwesome;letter-spacing:0px;word-spacing:0px;fill:#000000;fill-opacity:1;stroke:none;stroke-width:0.14922184px;stroke-linecap:butt;stroke-linejoin:miter;stroke-opacity:1"
         id="text5091">
        <path
           d="M 11.915988,3.1873959 10.876764,2.1481724 C 10.753523,2.0249312 10.507041,1.921675 10.330506,1.921675 H 7.3460691 c -0.1765347,0 -0.319761,0.1432263 -0.319761,0.3197611 v 5.3293513 c 0,0.1765348 0.1432263,0.3197611 0.319761,0.3197611 h 4.4766549 c 0.176535,0 0.319761,-0.1432263 0.319761,-0.3197611 V 3.7336545 c 0,-0.1765348 -0.103256,-0.4230173 -0.226497,-0.5462586 z m -1.478895,-0.812726 c 0.05662,0.019985 0.113249,0.049963 0.136565,0.073279 l 1.042554,1.0425544 c 0.02332,0.023316 0.05329,0.07994 0.07328,0.1365646 h -1.252397 z m 1.279044,5.0895305 H 7.4526562 V 2.3480231 h 2.5580888 v 1.3856314 c 0,0.1765347 0.143226,0.319761 0.319761,0.319761 h 1.385631 z"
           style="stroke-width:0.14922184px"
           id="path5111"
           inkscape:connector-curvature="0" />
      </g>
      <g
         transform="matrix(0.77704474,0,0,0.77704474,-2.6384331,1.8396567)"
         aria-label=""
         style="font-style:normal;font-variant:normal;font-weight:normal;font-stretch:normal;font-size:5.03227091px;line-height:125%;font-family:FontAwesome;-inkscape-font-specification:FontAwesome;letter-spacing:0px;word-spacing:0px;fill:#000000;fill-opacity:1;stroke:none;stroke-width:0.12580676px;stroke-linecap:butt;stroke-linejoin:miter;stroke-opacity:1"
         id="text5096">
        <path
           d="m 11.367079,6.2521871 c 0,0.070205 -0.02808,0.1376012 -0.07863,0.1881485 l -0.412803,0.4099953 c -0.05055,0.047739 -0.120752,0.073013 -0.190957,0.073013 -0.07021,0 -0.140409,-0.025274 -0.190957,-0.075821 L 9.9152459,6.266228 C 9.8646989,6.215681 9.8366169,6.145476 9.8366169,6.0752713 c 0,-0.084246 0.033698,-0.1488339 0.09267,-0.2049976 0.09267,0.09267 0.1712991,0.2021894 0.3145171,0.2021894 0.148834,0 0.269586,-0.120752 0.269586,-0.2695859 0,-0.1432175 -0.10952,-0.2218468 -0.20219,-0.3145169 0.05616,-0.058972 0.120752,-0.089862 0.20219,-0.089862 0.0702,0 0.140409,0.028082 0.190956,0.078629 l 0.584103,0.5841029 c 0.05055,0.050547 0.07863,0.1179438 0.07863,0.1909569 z M 9.3929232,4.2724153 c 0,0.084246 -0.033698,0.1488339 -0.09267,0.2049977 -0.09267,-0.09267 -0.1712994,-0.2021895 -0.3145169,-0.2021895 -0.1488339,0 -0.269586,0.1207521 -0.269586,0.269586 0,0.1432175 0.1095193,0.2218467 0.2021895,0.3145169 -0.056164,0.058972 -0.120752,0.087054 -0.2021895,0.087054 -0.070205,0 -0.1404093,-0.025274 -0.1909567,-0.075821 L 7.9410906,4.2864563 c -0.050547,-0.050547 -0.078629,-0.1179439 -0.078629,-0.1909567 0,-0.070205 0.028082,-0.1376012 0.078629,-0.1881486 L 8.353894,3.4973558 c 0.050547,-0.047739 0.1207521,-0.075821 0.1909567,-0.075821 0.070205,0 0.1404094,0.028082 0.1909568,0.078629 L 9.314294,4.0814586 c 0.050547,0.050547 0.078629,0.1207521 0.078629,0.1909567 z M 11.90625,6.2521871 c 0,-0.2162304 -0.08144,-0.4184198 -0.235887,-0.5728701 L 11.08626,5.0952141 C 10.934618,4.943572 10.726812,4.8593264 10.51339,4.8593264 c -0.221847,0 -0.429653,0.089862 -0.5841031,0.2471204 L 9.6821664,4.8593264 C 9.8394249,4.7048761 9.9292869,4.4942621 9.9292869,4.2724153 c 0,-0.2134222 -0.081437,-0.4184198 -0.2330795,-0.5700619 L 9.1177209,3.1210587 C 8.9660788,2.9666084 8.7610811,2.8823628 8.5448507,2.8823628 c -0.2134222,0 -0.4184198,0.081437 -0.5700619,0.2330795 L 7.5619853,3.5254376 c -0.1516421,0.1488339 -0.2386959,0.3566398 -0.2386959,0.570062 0,0.2162304 0.081437,0.4184198 0.2358877,0.5728701 L 8.14328,5.2524726 c 0.1516421,0.1516421 0.3594479,0.2358877 0.5728701,0.2358877 0.2218468,0 0.4296526,-0.089862 0.5841029,-0.2471205 L 9.5473735,5.4883603 C 9.390115,5.6428105 9.300253,5.8534246 9.300253,6.0752713 c 0,0.2134222 0.081437,0.4184199 0.2330795,0.570062 l 0.5784865,0.5812946 c 0.151642,0.1544503 0.35664,0.2386959 0.57287,0.2386959 0.213422,0 0.41842,-0.081437 0.570062,-0.2330795 L 11.667555,6.822249 C 11.819197,6.6734151 11.90625,6.4656093 11.90625,6.2521871 Z"
           style="stroke-width:0.12580676px"
           id="path5114"
           inkscape:connector-curvature="0" />
      </g>
      <g
         transform="matrix(0.77704474,0,0,0.77704474,-6.171835,-1.8337995)"
         aria-label=""
         style="font-style:normal;font-variant:normal;font-weight:normal;font-stretch:normal;font-size:5.9688735px;line-height:125%;font-family:FontAwesome;-inkscape-font-specification:FontAwesome;letter-spacing:0px;word-spacing:0px;fill:#000000;fill-opacity:1;stroke:none;stroke-width:0.14922184px;stroke-linecap:butt;stroke-linejoin:miter;stroke-opacity:1"
         id="text5091-7">
        <path
           d="M 11.915988,3.1873959 10.876764,2.1481724 C 10.753523,2.0249312 10.507041,1.921675 10.330506,1.921675 H 7.3460691 c -0.1765347,0 -0.319761,0.1432263 -0.319761,0.3197611 v 5.3293513 c 0,0.1765348 0.1432263,0.3197611 0.319761,0.3197611 h 4.4766549 c 0.176535,0 0.319761,-0.1432263 0.319761,-0.3197611 V 3.7336545 c 0,-0.1765348 -0.103256,-0.4230173 -0.226497,-0.5462586 z m -1.478895,-0.812726 c 0.05662,0.019985 0.113249,0.049963 0.136565,0.073279 l 1.042554,1.0425544 c 0.02332,0.023316 0.05329,0.07994 0.07328,0.1365646 h -1.252397 z m 1.279044,5.0895305 H 7.4526562 V 2.3480231 h 2.5580888 v 1.3856314 c 0,0.1765347 0.143226,0.319761 0.319761,0.319761 h 1.385631 z"
           style="stroke-width:0.14922184px"
           id="path5111-9"
           inkscape:connector-curvature="0" />
      </g>
    </g>
  </g>
  <g
     inkscape:groupmode="layer"
     id="layer7"
     inkscape:label="Layer 6"
     transform="translate(-3.3984116,0.75959379)" />
</svg>
