<?xml version="1.0" encoding="UTF-8" standalone="no"?>
<!-- Created with Inkscape (http://www.inkscape.org/) -->

<svg
   xmlns:dc="http://purl.org/dc/elements/1.1/"
   xmlns:cc="http://creativecommons.org/ns#"
   xmlns:rdf="http://www.w3.org/1999/02/22-rdf-syntax-ns#"
   xmlns:svg="http://www.w3.org/2000/svg"
   xmlns="http://www.w3.org/2000/svg"
   xmlns:sodipodi="http://sodipodi.sourceforge.net/DTD/sodipodi-0.dtd"
   xmlns:inkscape="http://www.inkscape.org/namespaces/inkscape"
   width="9.4023056mm"
   height="9.3706045mm"
   viewBox="0 0 9.4023054 9.3706044"
   version="1.1"
   id="svg8"
   inkscape:version="0.92.1 r15371"
   sodipodi:docname="associations-containing-document-2.svg">
  <defs
     id="defs2" />
  <sodipodi:namedview
     id="base"
     pagecolor="#ffffff"
     bordercolor="#666666"
     borderopacity="1.0"
     inkscape:pageopacity="0.0"
     inkscape:pageshadow="2"
     inkscape:zoom="5.6"
     inkscape:cx="-33.396622"
     inkscape:cy="-14.140075"
     inkscape:document-units="mm"
     inkscape:current-layer="layer2"
     showgrid="false"
     inkscape:window-width="1920"
     inkscape:window-height="1018"
     inkscape:window-x="-8"
     inkscape:window-y="-8"
     inkscape:window-maximized="1" />
  <metadata
     id="metadata5">
    <rdf:RDF>
      <cc:Work
         rdf:about="">
        <dc:format>image/svg+xml</dc:format>
        <dc:type
           rdf:resource="http://purl.org/dc/dcmitype/StillImage" />
        <dc:title></dc:title>
      </cc:Work>
    </rdf:RDF>
  </metadata>
  <text
     xml:space="preserve"
     style="font-style:normal;font-variant:normal;font-weight:normal;font-stretch:normal;font-size:10.58333302px;line-height:125%;font-family:FontAwesome;-inkscape-font-specification:FontAwesome;letter-spacing:0px;word-spacing:0px;fill:#000000;fill-opacity:1;stroke:none;stroke-width:0.26458332px;stroke-linecap:butt;stroke-linejoin:miter;stroke-opacity:1"
     x="40.940346"
     y="38.96188"
     id="text59"><tspan
       sodipodi:role="line"
       id="tspan57"
       x="40.940346"
       y="49.356224"
       style="fill:#000000;stroke-width:0.26458332px" /></text>
  <g
     inkscape:groupmode="layer"
     id="layer1"
     inkscape:label="Layer 1"
     style="display:inline"
     transform="translate(14.174253,20.363246)" />
  <g
     inkscape:groupmode="layer"
     id="layer3"
     inkscape:label="Layer 2"
     style="display:inline"
     transform="translate(14.174253,20.363246)" />
  <g
     inkscape:groupmode="layer"
     id="layer4"
     inkscape:label="Layer 3"
     transform="translate(14.174253,20.363246)" />
  <g
     inkscape:groupmode="layer"
     id="layer2"
     inkscape:label="Layer 4"
     transform="translate(-0.04710053,-0.23653047)">
    <g
       id="g4500">
      <g
         transform="matrix(1.122807,0,0,1.122807,12.97597,24.089591)"
         aria-label=""
         style="font-style:normal;font-variant:normal;font-weight:normal;font-stretch:normal;font-size:5.38616037px;line-height:125%;font-family:FontAwesome;-inkscape-font-specification:FontAwesome;letter-spacing:0px;word-spacing:0px;display:inline;fill:#000000;fill-opacity:1;stroke:none;stroke-width:0.134654px;stroke-linecap:butt;stroke-linejoin:miter;stroke-opacity:1"
         id="text4510">
        <path
           d="m -7.1024519,-17.142444 -0.937769,-0.937769 c -0.1112098,-0.11121 -0.3336294,-0.204385 -0.4929299,-0.204385 h -2.6930802 c -0.1593,0 -0.288544,0.129243 -0.288544,0.288544 v 4.809072 c 0,0.1593 0.129244,0.288544 0.288544,0.288544 h 4.0396203 c 0.1593005,0 0.2885443,-0.129244 0.2885443,-0.288544 v -3.462532 c 0,-0.159301 -0.093176,-0.38172 -0.2043855,-0.49293 z m -1.3345174,-0.733383 c 0.051096,0.01803 0.1021927,0.04509 0.1232324,0.06612 l 0.9407747,0.940775 c 0.02104,0.02104 0.048091,0.07214 0.066125,0.123232 H -8.436969 Z m 1.1541772,4.592663 H -11.13005 v -4.616709 h 2.3083549 v 1.250359 c 0,0.1593 0.1292438,0.288544 0.2885443,0.288544 h 1.2503587 z"
           style="stroke-width:0.134654px"
           id="path4544"
           inkscape:connector-curvature="0" />
      </g>
      <g
         aria-label=""
         style="font-style:normal;font-variant:normal;font-weight:normal;font-stretch:normal;font-size:7.21119261px;line-height:125%;font-family:FontAwesome;-inkscape-font-specification:FontAwesome;letter-spacing:0px;word-spacing:0px;fill:#000000;fill-opacity:1;stroke:none;stroke-width:0.18027981px;stroke-linecap:butt;stroke-linejoin:miter;stroke-opacity:1"
         id="text4492">
        <path
           d="m 8.6767786,5.0654541 c 0,0.1006026 -0.040241,0.197181 -0.1126748,0.2696149 L 7.9725606,5.922588 c -0.072434,0.06841 -0.1730364,0.1046267 -0.273639,0.1046267 -0.1006026,0 -0.2012051,-0.036217 -0.273639,-0.1086508 L 6.5963174,5.0855746 C 6.5238835,5.0131408 6.4836425,4.9125382 6.4836425,4.8119356 c 0,-0.1207231 0.048289,-0.2132775 0.1327954,-0.2937595 0.1327954,0.1327954 0.2454703,0.2897354 0.4506995,0.2897354 0.2132775,0 0.3863139,-0.1730364 0.3863139,-0.3863139 0,-0.2052292 -0.15694,-0.3179041 -0.2897354,-0.4506995 0.080482,-0.084506 0.1730364,-0.1287713 0.2897354,-0.1287713 0.1006026,0 0.2012052,0.040241 0.273639,0.1126749 l 0.8370135,0.8370134 c 0.072434,0.072434 0.1126748,0.1690123 0.1126748,0.273639 z M 5.8478342,2.2284615 c 0,0.1207231 -0.048289,0.2132774 -0.1327954,0.2937595 C 5.5822434,2.3894256 5.4695685,2.2324856 5.2643393,2.2324856 c -0.2132775,0 -0.3863139,0.1730364 -0.3863139,0.3863139 0,0.2052292 0.15694,0.3179041 0.2897354,0.4506995 -0.080482,0.084506 -0.1730364,0.1247472 -0.2897354,0.1247472 -0.1006026,0 -0.2012052,-0.036217 -0.273639,-0.1086508 L 3.767373,2.248582 C 3.6949391,2.1761481 3.6546981,2.0795697 3.6546981,1.974943 c 0,-0.1006026 0.040241,-0.1971811 0.1126749,-0.2696149 L 4.3589161,1.117809 c 0.072434,-0.06841 0.1730364,-0.1086508 0.273639,-0.1086508 0.1006026,0 0.2012052,0.040241 0.273639,0.1126749 l 0.8289652,0.8329894 c 0.072434,0.072434 0.1126749,0.1730364 0.1126749,0.273639 z m 3.6015722,2.8369926 c 0,-0.3098559 -0.116699,-0.5995914 -0.3380246,-0.820917 L 8.2743683,3.4075236 C 8.0570668,3.1902221 7.7592832,3.069499 7.4534513,3.069499 c -0.3179041,0 -0.6156877,0.1287713 -0.8370134,0.3541211 L 6.2623168,3.069499 C 6.4876666,2.8481733 6.6164379,2.5463656 6.6164379,2.2284615 c 0,-0.3058319 -0.116699,-0.5995914 -0.3340006,-0.8168929 L 5.4534721,0.57857923 C 5.2361706,0.35725356 4.942411,0.23653047 4.6325551,0.23653047 c -0.3058318,0 -0.5995913,0.11669899 -0.8168929,0.33400055 L 3.2241191,1.1580501 C 3.0068175,1.3713275 2.8820703,1.6691111 2.8820703,1.974943 c 0,0.3098559 0.116699,0.5995913 0.3380247,0.820917 l 0.8370134,0.8370134 c 0.2173015,0.2173016 0.5150852,0.3380247 0.820917,0.3380247 0.3179041,0 0.6156878,-0.1287713 0.8370134,-0.3541211 L 6.0691599,3.9708981 C 5.8438101,4.1922237 5.7150388,4.4940315 5.7150388,4.8119356 c 0,0.3058318 0.116699,0.5995914 0.3340006,0.8168929 l 0.8289652,0.8329893 c 0.2173016,0.2213257 0.5110611,0.3420488 0.820917,0.3420488 0.3058318,0 0.5995914,-0.116699 0.8168929,-0.3340006 L 9.1073577,5.882347 C 9.3246592,5.6690695 9.4494064,5.3712859 9.4494064,5.0654541 Z"
           style="stroke-width:0.18027981px"
           id="path4502" />
      </g>
    </g>
  </g>
</svg>
