<?xml version="1.0" encoding="UTF-8" standalone="no"?>
<!-- Created with Inkscape (http://www.inkscape.org/) -->

<svg
   xmlns:dc="http://purl.org/dc/elements/1.1/"
   xmlns:cc="http://creativecommons.org/ns#"
   xmlns:rdf="http://www.w3.org/1999/02/22-rdf-syntax-ns#"
   xmlns:svg="http://www.w3.org/2000/svg"
   xmlns="http://www.w3.org/2000/svg"
   xmlns:sodipodi="http://sodipodi.sourceforge.net/DTD/sodipodi-0.dtd"
   xmlns:inkscape="http://www.inkscape.org/namespaces/inkscape"
   width="18.237352mm"
   height="9.6386881mm"
   viewBox="0 0 18.237352 9.638688"
   version="1.1"
   id="svg8"
   inkscape:version="0.92.1 r15371"
   sodipodi:docname="associaDocumento.svg">
  <defs
     id="defs2" />
  <sodipodi:namedview
     id="base"
     pagecolor="#ffffff"
     bordercolor="#666666"
     borderopacity="1.0"
     inkscape:pageopacity="0.0"
     inkscape:pageshadow="2"
     inkscape:zoom="5.6"
     inkscape:cx="39.102824"
     inkscape:cy="-14.020817"
     inkscape:document-units="mm"
     inkscape:current-layer="layer4"
     showgrid="false"
     inkscape:window-width="1920"
     inkscape:window-height="1018"
     inkscape:window-x="-8"
     inkscape:window-y="-8"
     inkscape:window-maximized="1" />
  <metadata
     id="metadata5">
    <rdf:RDF>
      <cc:Work
         rdf:about="">
        <dc:format>image/svg+xml</dc:format>
        <dc:type
           rdf:resource="http://purl.org/dc/dcmitype/StillImage" />
        <dc:title />
      </cc:Work>
    </rdf:RDF>
  </metadata>
  <text
     xml:space="preserve"
     style="font-style:normal;font-variant:normal;font-weight:normal;font-stretch:normal;font-size:10.58333302px;line-height:125%;font-family:FontAwesome;-inkscape-font-specification:FontAwesome;letter-spacing:0px;word-spacing:0px;fill:#000000;fill-opacity:1;stroke:none;stroke-width:0.26458332px;stroke-linecap:butt;stroke-linejoin:miter;stroke-opacity:1"
     x="40.987446"
     y="39.19841"
     id="text59"><tspan
       sodipodi:role="line"
       id="tspan57"
       x="40.987446"
       y="49.592754"
       style="fill:#000000;stroke-width:0.26458332px" /></text>
  <g
     inkscape:groupmode="layer"
     id="layer1"
     inkscape:label="Layer 1"
     style="display:inline"
     transform="translate(14.221354,20.599776)" />
  <g
     inkscape:groupmode="layer"
     id="layer3"
     inkscape:label="Layer 2"
     style="display:inline"
     transform="translate(14.221354,20.599776)" />
  <g
     inkscape:groupmode="layer"
     id="layer4"
     inkscape:label="Layer 3"
     transform="translate(14.221354,20.599776)">
    <g
       id="g4542">
      <path
         inkscape:connector-curvature="0"
         id="text4502"
         d="m -11.652519,-20.599776 c -0.448846,0 -0.879976,0.171492 -1.198893,0.490409 l -0.868164,0.861963 c -0.318917,0.313012 -0.501778,0.750047 -0.501778,1.198893 0,0.454753 0.17127,0.880272 0.496094,1.205095 l 1.228348,1.228349 c 0.285183,0.285183 0.664914,0.455695 1.062985,0.488859 v -1.151351 c -0.0967,-0.02333 -0.188187,-0.06881 -0.259933,-0.14056 l -1.228349,-1.228866 c -0.106305,-0.106305 -0.165364,-0.247973 -0.165364,-0.401526 0,-0.147646 0.05906,-0.289018 0.165364,-0.395324 l 0.868164,-0.86248 c 0.106306,-0.1004 0.25388,-0.15968 0.401526,-0.15968 0.147647,0 0.295737,0.05906 0.402043,0.165364 l 1.058334,1.063502 h 1.3565058 c -0.081459,-0.23729 -0.2134817,-0.456361 -0.3953248,-0.638204 l -1.216463,-1.222148 c -0.318917,-0.324823 -0.750342,-0.502295 -1.205095,-0.502295 z m 4.5656132,4.213696 v 1.267106 l 1.2045775,1.204578 c 0.1063059,0.106306 0.1653646,0.247973 0.1653646,0.401526 0,0.147647 -0.059059,0.289535 -0.1653646,0.395841 l -0.868164,0.86248 c -0.1063059,0.1004 -0.2538788,0.153479 -0.4015259,0.153479 -0.147647,0 -0.2952199,-0.05337 -0.4015258,-0.15968 l -0.9637654,-0.968416 H -9.934794 c 0.082635,0.200933 0.2036649,0.385565 0.3612182,0.543119 l 1.2169801,1.222664 c 0.3189174,0.324823 0.749825,0.502295 1.2045775,0.502295 0.4488469,0 0.8799759,-0.171492 1.1988933,-0.490409 l 0.868164,-0.86248 c 0.3189174,-0.313011 0.5017781,-0.750046 0.5017781,-1.198893 0,-0.454753 -0.1712704,-0.879754 -0.4960938,-1.204578 l -1.2283487,-1.228348 c -0.2163781,-0.216379 -0.4873578,-0.365469 -0.7792805,-0.440284 z"
         style="font-style:normal;font-variant:normal;font-weight:normal;font-stretch:normal;font-size:10.58333302px;line-height:125%;font-family:FontAwesome;-inkscape-font-specification:FontAwesome;letter-spacing:0px;word-spacing:0px;fill:#000000;fill-opacity:1;stroke:none;stroke-width:0.26458332px;stroke-linecap:butt;stroke-linejoin:miter;stroke-opacity:1" />
      <g
         aria-label=""
         style="font-style:normal;font-variant:normal;font-weight:normal;font-stretch:normal;font-size:5.38616037px;line-height:125%;font-family:FontAwesome;-inkscape-font-specification:FontAwesome;letter-spacing:0px;word-spacing:0px;display:inline;fill:#000000;fill-opacity:1;stroke:none;stroke-width:0.134654px;stroke-linecap:butt;stroke-linejoin:miter;stroke-opacity:1"
         id="text4510">
        <path
           d="m -7.1024519,-17.142444 -0.937769,-0.937769 c -0.1112098,-0.11121 -0.3336294,-0.204385 -0.4929299,-0.204385 h -2.6930802 c -0.1593,0 -0.288544,0.129243 -0.288544,0.288544 v 4.809072 c 0,0.1593 0.129244,0.288544 0.288544,0.288544 h 4.0396203 c 0.1593005,0 0.2885443,-0.129244 0.2885443,-0.288544 v -3.462532 c 0,-0.159301 -0.093176,-0.38172 -0.2043855,-0.49293 z m -1.3345174,-0.733383 c 0.051096,0.01803 0.1021927,0.04509 0.1232324,0.06612 l 0.9407747,0.940775 c 0.02104,0.02104 0.048091,0.07214 0.066125,0.123232 h -1.1301318 z m 1.1541772,4.592663 H -11.13005 v -4.616709 h 2.3083549 v 1.250359 c 0,0.1593 0.1292438,0.288544 0.2885443,0.288544 h 1.2503587 z"
           style="stroke-width:0.134654px"
           id="path4544" />
      </g>
      <g
         aria-label=""
         style="font-style:normal;font-variant:normal;font-weight:normal;font-stretch:normal;font-size:10.58333302px;line-height:125%;font-family:FontAwesome;-inkscape-font-specification:FontAwesome;letter-spacing:0px;word-spacing:0px;fill:#000000;fill-opacity:1;stroke:none;stroke-width:0.26458332px;stroke-linecap:butt;stroke-linejoin:miter;stroke-opacity:1"
         id="text4520">
        <path
           d="m 4.0159984,-16.101788 c 0,-0.4016 -0.2657645,-0.755952 -0.6909877,-0.755952 h -4.15773801 l 1.7304222,-1.730423 c 0.14174111,-0.141741 0.22442331,-0.336635 0.22442331,-0.537434 0,-0.2008 -0.082682,-0.395694 -0.22442331,-0.537435 l -0.44294084,-0.437035 c -0.14174107,-0.141741 -0.33072916,-0.224424 -0.531529,-0.224424 -0.20079985,0 -0.39569381,0.08268 -0.53743488,0.224424 l -3.84472647,3.83882 c -0.1358352,0.141741 -0.2185175,0.336635 -0.2185175,0.537435 0,0.2008 0.082682,0.395694 0.2185175,0.531529 l 3.84472647,3.850632 c 0.14174107,0.135836 0.33663503,0.218518 0.53743488,0.218518 0.20079984,0 0.39569381,-0.08268 0.531529,-0.218518 l 0.44294084,-0.448846 c 0.14174111,-0.135835 0.22442331,-0.330729 0.22442331,-0.531529 0,-0.2008 -0.082682,-0.395694 -0.22442331,-0.531529 l -1.7304222,-1.736328 H 3.3250107 c 0.4252232,0 0.6909877,-0.354353 0.6909877,-0.755953 z"
           style="stroke-width:0.26458332px"
           id="path4547" />
      </g>
    </g>
  </g>
</svg>
