<?xml version="1.0" encoding="UTF-8" standalone="no"?>
<!-- Created with Inkscape (http://www.inkscape.org/) -->

<svg
   xmlns:dc="http://purl.org/dc/elements/1.1/"
   xmlns:cc="http://creativecommons.org/ns#"
   xmlns:rdf="http://www.w3.org/1999/02/22-rdf-syntax-ns#"
   xmlns:svg="http://www.w3.org/2000/svg"
   xmlns="http://www.w3.org/2000/svg"
   xmlns:sodipodi="http://sodipodi.sourceforge.net/DTD/sodipodi-0.dtd"
   xmlns:inkscape="http://www.inkscape.org/namespaces/inkscape"
   width="9.3471823mm"
   height="9.3706036mm"
   viewBox="0 0 9.3471821 9.3706035"
   version="1.1"
   id="svg8"
   inkscape:version="0.92.1 r15371"
   sodipodi:docname="associations-containing-document-3.svg">
  <defs
     id="defs2" />
  <sodipodi:namedview
     id="base"
     pagecolor="#ffffff"
     bordercolor="#666666"
     borderopacity="1.0"
     inkscape:pageopacity="0.0"
     inkscape:pageshadow="2"
     inkscape:zoom="5.6"
     inkscape:cx="-33.038926"
     inkscape:cy="4.6128845"
     inkscape:document-units="mm"
     inkscape:current-layer="layer2"
     showgrid="false"
     inkscape:window-width="1920"
     inkscape:window-height="1018"
     inkscape:window-x="-8"
     inkscape:window-y="-8"
     inkscape:window-maximized="1" />
  <metadata
     id="metadata5">
    <rdf:RDF>
      <cc:Work
         rdf:about="">
        <dc:format>image/svg+xml</dc:format>
        <dc:type
           rdf:resource="http://purl.org/dc/dcmitype/StillImage" />
        <dc:title></dc:title>
      </cc:Work>
    </rdf:RDF>
  </metadata>
  <text
     xml:space="preserve"
     style="font-style:normal;font-variant:normal;font-weight:normal;font-stretch:normal;font-size:10.58333302px;line-height:125%;font-family:FontAwesome;-inkscape-font-specification:FontAwesome;letter-spacing:0px;word-spacing:0px;fill:#000000;fill-opacity:1;stroke:none;stroke-width:0.26458332px;stroke-linecap:butt;stroke-linejoin:miter;stroke-opacity:1"
     x="41.082085"
     y="38.96188"
     id="text59"><tspan
       sodipodi:role="line"
       id="tspan57"
       x="41.082085"
       y="49.356224"
       style="fill:#000000;stroke-width:0.26458332px" /></text>
  <g
     inkscape:groupmode="layer"
     id="layer1"
     inkscape:label="Layer 1"
     style="display:inline"
     transform="translate(14.315995,20.363245)" />
  <g
     inkscape:groupmode="layer"
     id="layer3"
     inkscape:label="Layer 2"
     style="display:inline"
     transform="translate(14.315995,20.363245)" />
  <g
     inkscape:groupmode="layer"
     id="layer4"
     inkscape:label="Layer 3"
     transform="translate(14.315995,20.363245)" />
  <g
     inkscape:groupmode="layer"
     id="layer2"
     inkscape:label="Layer 4"
     transform="translate(0.09464054,-0.23653064)">
    <g
       id="g4515">
      <g
         transform="matrix(0.94736838,0,0,0.94736838,10.814094,21.826707)"
         aria-label=""
         style="font-style:normal;font-variant:normal;font-weight:normal;font-stretch:normal;font-size:5.38616037px;line-height:125%;font-family:FontAwesome;-inkscape-font-specification:FontAwesome;letter-spacing:0px;word-spacing:0px;display:inline;fill:#000000;fill-opacity:1;stroke:none;stroke-width:0.134654px;stroke-linecap:butt;stroke-linejoin:miter;stroke-opacity:1"
         id="text4510">
        <path
           d="m -7.1024519,-17.142444 -0.937769,-0.937769 c -0.1112098,-0.11121 -0.3336294,-0.204385 -0.4929299,-0.204385 h -2.6930802 c -0.1593,0 -0.288544,0.129243 -0.288544,0.288544 v 4.809072 c 0,0.1593 0.129244,0.288544 0.288544,0.288544 h 4.0396203 c 0.1593005,0 0.2885443,-0.129244 0.2885443,-0.288544 v -3.462532 c 0,-0.159301 -0.093176,-0.38172 -0.2043855,-0.49293 z m -1.3345174,-0.733383 c 0.051096,0.01803 0.1021927,0.04509 0.1232324,0.06612 l 0.9407747,0.940775 c 0.02104,0.02104 0.048091,0.07214 0.066125,0.123232 H -8.436969 Z m 1.1541772,4.592663 H -11.13005 v -4.616709 h 2.3083549 v 1.250359 c 0,0.1593 0.1292438,0.288544 0.2885443,0.288544 h 1.2503587 z"
           style="stroke-width:0.134654px"
           id="path4544"
           inkscape:connector-curvature="0" />
      </g>
      <g
         aria-label=""
         style="font-style:normal;font-variant:normal;font-weight:normal;font-stretch:normal;font-size:5.56727409px;line-height:125%;font-family:FontAwesome;-inkscape-font-specification:FontAwesome;letter-spacing:0px;word-spacing:0px;fill:#000000;fill-opacity:1;stroke:none;stroke-width:0.13918185px;stroke-linecap:butt;stroke-linejoin:miter;stroke-opacity:1"
         id="text4507">
        <path
           d="m 9.252542,3.716077 c 0,-0.1646571 -0.1335897,-0.2982469 -0.2982468,-0.2982469 H 8.6560484 V 2.8213365 c 0,-0.2174717 -0.1801908,-0.3976625 -0.3976625,-0.3976625 H 6.6677362 V 1.8271804 H 6.965983 c 0.1646571,0 0.2982468,-0.1335897 0.2982468,-0.2982468 V 0.53477747 c 0,-0.1646571 -0.1335897,-0.29824683 -0.2982468,-0.29824683 H 5.9718269 c -0.1646571,0 -0.2982468,0.13358973 -0.2982468,0.29824683 V 1.5289336 c 0,0.1646571 0.1335897,0.2982468 0.2982468,0.2982468 H 6.2700738 V 2.423674 H 4.679424 c -0.2174716,0 -0.3976624,0.1801908 -0.3976624,0.3976625 V 3.4178301 H 3.9835148 c -0.1646572,0 -0.2982469,0.1335898 -0.2982469,0.2982469 v 0.994156 c 0,0.1646571 0.1335897,0.2982469 0.2982469,0.2982469 h 0.994156 c 0.1646571,0 0.2982469,-0.1335898 0.2982469,-0.2982469 V 3.716077 c 0,-0.1646571 -0.1335898,-0.2982469 -0.2982469,-0.2982469 H 4.679424 V 2.8213365 H 6.2700738 V 3.4178301 H 5.9718269 c -0.1646571,0 -0.2982468,0.1335898 -0.2982468,0.2982469 v 0.994156 c 0,0.1646571 0.1335897,0.2982469 0.2982468,0.2982469 H 6.965983 c 0.1646571,0 0.2982468,-0.1335898 0.2982468,-0.2982469 V 3.716077 c 0,-0.1646571 -0.1335897,-0.2982469 -0.2982468,-0.2982469 H 6.6677362 V 2.8213365 H 8.2583859 V 3.4178301 H 7.9601391 c -0.1646571,0 -0.2982468,0.1335898 -0.2982468,0.2982469 v 0.994156 c 0,0.1646571 0.1335897,0.2982469 0.2982468,0.2982469 h 0.9941561 c 0.1646571,0 0.2982468,-0.1335898 0.2982468,-0.2982469 z"
           style="stroke-width:0.13918185px"
           id="path4517" />
      </g>
    </g>
  </g>
</svg>
