<?xml version="1.0" encoding="UTF-8" standalone="no"?>
<!-- Created with Inkscape (http://www.inkscape.org/) -->

<svg
   xmlns:dc="http://purl.org/dc/elements/1.1/"
   xmlns:cc="http://creativecommons.org/ns#"
   xmlns:rdf="http://www.w3.org/1999/02/22-rdf-syntax-ns#"
   xmlns:svg="http://www.w3.org/2000/svg"
   xmlns="http://www.w3.org/2000/svg"
   xmlns:sodipodi="http://sodipodi.sourceforge.net/DTD/sodipodi-0.dtd"
   xmlns:inkscape="http://www.inkscape.org/namespaces/inkscape"
   width="9.8273067mm"
   height="8.3152542mm"
   viewBox="0 0 9.8273067 8.3152542"
   version="1.1"
   id="svg8"
   inkscape:version="0.92.1 r15371"
   sodipodi:docname="insert-in-folder.svg">
  <defs
     id="defs2" />
  <sodipodi:namedview
     id="base"
     pagecolor="#ffffff"
     bordercolor="#666666"
     borderopacity="1.0"
     inkscape:pageopacity="0.0"
     inkscape:pageshadow="2"
     inkscape:zoom="3.959798"
     inkscape:cx="-27.030399"
     inkscape:cy="15.466851"
     inkscape:document-units="mm"
     inkscape:current-layer="layer3"
     showgrid="false"
     inkscape:window-width="1920"
     inkscape:window-height="1018"
     inkscape:window-x="-8"
     inkscape:window-y="-8"
     inkscape:window-maximized="1" />
  <metadata
     id="metadata5">
    <rdf:RDF>
      <cc:Work
         rdf:about="">
        <dc:format>image/svg+xml</dc:format>
        <dc:type
           rdf:resource="http://purl.org/dc/dcmitype/StillImage" />
        <dc:title />
      </cc:Work>
    </rdf:RDF>
  </metadata>
  <text
     xml:space="preserve"
     style="font-style:normal;font-variant:normal;font-weight:normal;font-stretch:normal;font-size:10.58333302px;line-height:125%;font-family:FontAwesome;-inkscape-font-specification:FontAwesome;letter-spacing:0px;word-spacing:0px;fill:#000000;fill-opacity:1;stroke:none;stroke-width:0.26458332px;stroke-linecap:butt;stroke-linejoin:miter;stroke-opacity:1"
     x="4.476656"
     y="7.0457792"
     id="text4488"><tspan
       sodipodi:role="line"
       id="tspan4486"
       x="4.476656"
       y="17.440125"
       style="stroke-width:0.26458332px" /><tspan
       sodipodi:role="line"
       x="4.476656"
       y="30.669291"
       style="stroke-width:0.26458332px"
       id="tspan4495" /></text>
  <g
     inkscape:groupmode="layer"
     id="layer3"
     inkscape:label="Layer 3"
     style="display:inline"
     transform="translate(12.762012,0.86816405)">
    <g
       id="g4504">
      <path
         inkscape:connector-curvature="0"
         id="text4493"
         transform="scale(0.26458333)"
         d="m -43.234375,-3.28125 c -2.745536,0 -5,2.2544644 -5,5 v 21.427734 c 0,2.745536 2.254464,5 5,5 h 27.142578 c 2.745536,0 5,-2.254464 5,-5 V 7.4316406 c 0,-2.7455356 -2.254464,-5 -5,-5 h -15 V 1.71875 c 0,-2.7455356 -2.254464,-5 -5,-5 z m 12.705078,9.4648438 c 0.379778,-10e-8 0.737781,0.1557493 1.005859,0.4238281 l 0.837891,0.828125 c 0.268079,0.2680787 0.423828,0.6358468 0.423828,1.015625 0,0.3797782 -0.155749,0.7475462 -0.423828,1.015625 l -3.273437,3.2734371 h 7.863281 c 0.804236,0 1.308594,0.670131 1.308594,1.429688 v 1.429687 c 0,0.759557 -0.504358,1.429688 -1.308594,1.429688 h -7.863281 l 3.273437,3.285156 c 0.268079,0.256909 0.423828,0.624128 0.423828,1.003906 0,0.379779 -0.155749,0.748951 -0.423828,1.00586 l -0.837891,0.849609 c -0.256908,0.256909 -0.626081,0.41211 -1.005859,0.41211 -0.379778,0 -0.747546,-0.155201 -1.015625,-0.41211 l -7.271484,-7.283203 c -0.256909,-0.256909 -0.414063,-0.626081 -0.414063,-1.005859 0,-0.379779 0.157154,-0.747547 0.414063,-1.015625 l 7.271484,-7.2617191 c 0.268079,-0.2680788 0.635847,-0.4238281 1.015625,-0.4238281 z"
         style="font-style:normal;font-variant:normal;font-weight:normal;font-stretch:normal;font-size:10.58333302px;line-height:125%;font-family:FontAwesome;-inkscape-font-specification:FontAwesome;letter-spacing:0px;word-spacing:0px;fill:#000000;fill-opacity:1;stroke:none;stroke-width:0.99999994px;stroke-linecap:butt;stroke-linejoin:miter;stroke-opacity:1" />
    </g>
  </g>
  <g
     inkscape:groupmode="layer"
     id="layer4"
     inkscape:label="Layer 4"
     transform="translate(12.762012,0.86816405)" />
</svg>
