<?xml version="1.0" encoding="UTF-8" standalone="no"?>
<!-- Created with Inkscape (http://www.inkscape.org/) -->

<svg
   xmlns:dc="http://purl.org/dc/elements/1.1/"
   xmlns:cc="http://creativecommons.org/ns#"
   xmlns:rdf="http://www.w3.org/1999/02/22-rdf-syntax-ns#"
   xmlns:svg="http://www.w3.org/2000/svg"
   xmlns="http://www.w3.org/2000/svg"
   xmlns:sodipodi="http://sodipodi.sourceforge.net/DTD/sodipodi-0.dtd"
   xmlns:inkscape="http://www.inkscape.org/namespaces/inkscape"
   width="8.8976669mm"
   height="9.1669559mm"
   viewBox="0 0 8.8976668 9.1669559"
   version="1.1"
   id="svg8"
   inkscape:version="0.92.1 r15371"
   sodipodi:docname="insert-in-association-2.svg">
  <defs
     id="defs2" />
  <sodipodi:namedview
     id="base"
     pagecolor="#ffffff"
     bordercolor="#666666"
     borderopacity="1.0"
     inkscape:pageopacity="0.0"
     inkscape:pageshadow="2"
     inkscape:zoom="7.919596"
     inkscape:cx="-8.404478"
     inkscape:cy="17.011979"
     inkscape:document-units="mm"
     inkscape:current-layer="layer3"
     showgrid="false"
     inkscape:window-width="1920"
     inkscape:window-height="1018"
     inkscape:window-x="-8"
     inkscape:window-y="-8"
     inkscape:window-maximized="1" />
  <metadata
     id="metadata5">
    <rdf:RDF>
      <cc:Work
         rdf:about="">
        <dc:format>image/svg+xml</dc:format>
        <dc:type
           rdf:resource="http://purl.org/dc/dcmitype/StillImage" />
        <dc:title></dc:title>
      </cc:Work>
    </rdf:RDF>
  </metadata>
  <g
     inkscape:groupmode="layer"
     id="layer2"
     inkscape:label="Layer 3"
     style="display:none"
     transform="translate(9.2146932,-0.26566328)">
    <rect
       style="opacity:1;fill:none;fill-opacity:1;fill-rule:nonzero;stroke:none;stroke-width:0.30000001;stroke-miterlimit:4;stroke-dasharray:none;stroke-opacity:1"
       id="rect4565"
       width="4.6103992"
       height="4.4767647"
       x="3.0519373"
       y="2.8681931" />
  </g>
  <g
     inkscape:groupmode="layer"
     id="layer4"
     inkscape:label="chain"
     transform="translate(9.5605266,-0.15367213)"
     style="display:inline" />
  <g
     inkscape:groupmode="layer"
     id="layer3"
     inkscape:label="arrow"
     transform="translate(9.5605266,-0.15367213)"
     style="display:inline">
    <g
       id="g4520">
      <g
         aria-label=""
         transform="scale(1.0303867,0.97050939)"
         style="font-style:normal;font-variant:normal;font-weight:normal;font-stretch:normal;font-size:7.3518424px;line-height:125%;font-family:FontAwesome;-inkscape-font-specification:FontAwesome;letter-spacing:0px;word-spacing:0px;display:inline;fill:#000000;fill-opacity:1;stroke:none;stroke-width:0.18379605px;stroke-linecap:butt;stroke-linejoin:miter;stroke-opacity:1"
         id="text4498">
        <path
           d="m -1.4310088,5.0814505 c 0,0.1025647 -0.041026,0.2010269 -0.1148726,0.2748736 l -0.6030808,0.5989782 c -0.073847,0.069744 -0.1764114,0.1066673 -0.2789762,0.1066673 -0.1025647,0 -0.2051295,-0.036923 -0.2789761,-0.1107699 L -3.5520482,5.1019634 c -0.073847,-0.073847 -0.1148725,-0.1764114 -0.1148725,-0.2789761 0,-0.1230777 0.049231,-0.2174373 0.1353855,-0.2994891 0.1353854,0.1353854 0.250258,0.2953865 0.4594901,0.2953865 0.2174373,0 0.3938487,-0.1764114 0.3938487,-0.3938487 0,-0.2092321 -0.160001,-0.3241047 -0.2953865,-0.4594902 0.082052,-0.086154 0.1764114,-0.1312829 0.2953865,-0.1312829 0.1025648,0 0.2051295,0.041026 0.2789762,0.1148726 l 0.8533388,0.8533388 c 0.073847,0.073847 0.1148726,0.1723088 0.1148726,0.2789762 z M -4.3151301,2.1891241 c 0,0.1230777 -0.049231,0.2174373 -0.1353854,0.2994891 -0.1353855,-0.1353855 -0.2502581,-0.2953865 -0.4594902,-0.2953865 -0.2174373,0 -0.3938487,0.1764114 -0.3938487,0.3938487 0,0.2092321 0.160001,0.3241046 0.2953865,0.4594901 -0.082052,0.086154 -0.1764114,0.1271803 -0.2953865,0.1271803 -0.1025648,0 -0.2051295,-0.036923 -0.2789762,-0.1107699 L -6.4361694,2.209637 c -0.073847,-0.073847 -0.1148725,-0.1723088 -0.1148725,-0.2789761 0,-0.1025648 0.041026,-0.201027 0.1148725,-0.2748736 l 0.6030808,-0.5989782 c 0.073847,-0.0697441 0.1764114,-0.11076997 0.2789762,-0.11076997 0.1025647,0 0.2051295,0.0410259 0.2789761,0.11487257 l 0.8451337,0.8492362 c 0.073847,0.073847 0.1148725,0.1764114 0.1148725,0.2789762 z m 3.67181865,2.8923264 c 0,-0.3158995 -0.11897512,-0.611286 -0.34461761,-0.8369285 L -1.8412679,3.3911831 C -2.0628078,3.1696432 -2.3663995,3.0465655 -2.6781964,3.0465655 c -0.3241047,0 -0.6276964,0.1312829 -0.8533388,0.361028 l -0.361028,-0.361028 c 0.2297451,-0.2256425 0.361028,-0.5333368 0.361028,-0.8574414 0,-0.3117969 -0.1189752,-0.611286 -0.3405151,-0.8328259 L -4.7171839,0.50706193 c -0.2215399,-0.22564248 -0.521029,-0.3487202 -0.8369285,-0.3487202 -0.3117969,0 -0.611286,0.11897513 -0.8328259,0.34051502 L -6.9900191,1.097835 c -0.2215399,0.2174373 -0.3487202,0.521029 -0.3487202,0.8328259 0,0.3158995 0.1189751,0.611286 0.3446176,0.8369285 l 0.8533388,0.8533388 c 0.2215399,0.2215399 0.5251316,0.3446176 0.8369285,0.3446176 0.3241047,0 0.6276964,-0.1312829 0.8533389,-0.3610279 l 0.3610279,0.3610279 c -0.229745,0.2256425 -0.3610279,0.5333368 -0.3610279,0.8574415 0,0.3117969 0.1189751,0.611286 0.340515,0.8328259 l 0.8451336,0.8492362 c 0.2215399,0.2256425 0.5210291,0.3487202 0.8369285,0.3487202 0.3117969,0 0.611286,-0.1189751 0.8328259,-0.340515 l 0.60308085,-0.5989782 c 0.2215399,-0.2174373 0.3487202,-0.521029 0.3487202,-0.8328259 z"
           style="stroke-width:0.18379605px"
           id="path4522" />
      </g>
      <g
         aria-label=""
         transform="scale(1.0060965,0.99394042)"
         style="font-style:normal;font-variant:normal;font-weight:normal;font-stretch:normal;font-size:6.21899319px;line-height:125%;font-family:FontAwesome;-inkscape-font-specification:FontAwesome;letter-spacing:0px;word-spacing:0px;fill:#000000;fill-opacity:1;stroke:none;stroke-width:0.15547483px;stroke-linecap:butt;stroke-linejoin:miter;stroke-opacity:1"
         id="text4494">
        <path
           d="m -5.060456,6.9342759 c 0,0.1214647 -0.1006422,0.2221069 -0.2221069,0.2221069 h -1.742151 l 0.6559094,0.6559095 c 0.041645,0.041645 0.062468,0.097172 0.062468,0.1561689 0,0.058997 -0.020823,0.1145239 -0.062468,0.1561689 l -0.3158082,0.3158082 c -0.041645,0.041645 -0.097172,0.062468 -0.1561689,0.062468 -0.058997,0 -0.1145239,-0.020822 -0.1561689,-0.062468 L -8.2532427,7.1841462 -8.5690509,6.8683379 c -0.041645,-0.041645 -0.062468,-0.097172 -0.062468,-0.1561689 0,-0.058997 0.020822,-0.1145238 0.062468,-0.1561689 l 0.3158082,-0.3158082 1.2562922,-1.2562922 c 0.041645,-0.041645 0.097172,-0.062468 0.1561689,-0.062468 0.058997,0 0.1145239,0.020823 0.1561689,0.062468 l 0.3158082,0.3158083 c 0.041645,0.041645 0.065938,0.097172 0.065938,0.1561689 0,0.058997 -0.024293,0.1145239 -0.065938,0.1561689 l -0.6559094,0.6559094 h 1.742151 c 0.1214647,0 0.2221069,0.1006422 0.2221069,0.2221069 z M -4.1720284,6.712169 c 0,-1.4714582 -1.1938246,-2.6652828 -2.6652828,-2.6652828 -1.4714582,0 -2.6652828,1.1938246 -2.6652828,2.6652828 0,1.4714582 1.1938246,2.6652828 2.6652828,2.6652828 1.4714582,0 2.6652828,-1.1938246 2.6652828,-2.6652828 z"
           style="stroke-width:0.15547483px"
           id="path4525" />
      </g>
    </g>
  </g>
</svg>
