<?xml version="1.0" encoding="UTF-8" standalone="no"?>
<!-- Created with Inkscape (http://www.inkscape.org/) -->

<svg
   xmlns:dc="http://purl.org/dc/elements/1.1/"
   xmlns:cc="http://creativecommons.org/ns#"
   xmlns:rdf="http://www.w3.org/1999/02/22-rdf-syntax-ns#"
   xmlns:svg="http://www.w3.org/2000/svg"
   xmlns="http://www.w3.org/2000/svg"
   xmlns:sodipodi="http://sodipodi.sourceforge.net/DTD/sodipodi-0.dtd"
   xmlns:inkscape="http://www.inkscape.org/namespaces/inkscape"
   width="9.6381712mm"
   height="9.6386881mm"
   viewBox="0 0 9.6381711 9.638688"
   version="1.1"
   id="svg8"
   inkscape:version="0.92.1 r15371"
   sodipodi:docname="inserisciInAssociazione.svg">
  <defs
     id="defs2" />
  <sodipodi:namedview
     id="base"
     pagecolor="#ffffff"
     bordercolor="#666666"
     borderopacity="1.0"
     inkscape:pageopacity="0.0"
     inkscape:pageshadow="2"
     inkscape:zoom="7.919596"
     inkscape:cx="17.796359"
     inkscape:cy="17.303937"
     inkscape:document-units="mm"
     inkscape:current-layer="layer3"
     showgrid="false"
     inkscape:window-width="1920"
     inkscape:window-height="1018"
     inkscape:window-x="-8"
     inkscape:window-y="-8"
     inkscape:window-maximized="1" />
  <metadata
     id="metadata5">
    <rdf:RDF>
      <cc:Work
         rdf:about="">
        <dc:format>image/svg+xml</dc:format>
        <dc:type
           rdf:resource="http://purl.org/dc/dcmitype/StillImage" />
        <dc:title />
      </cc:Work>
    </rdf:RDF>
  </metadata>
  <g
     inkscape:groupmode="layer"
     id="layer2"
     inkscape:label="Layer 3"
     style="display:inline"
     transform="translate(9.3817381,0.12882102)">
    <rect
       style="opacity:1;fill:none;fill-opacity:1;fill-rule:nonzero;stroke:none;stroke-width:0.30000001;stroke-miterlimit:4;stroke-dasharray:none;stroke-opacity:1"
       id="rect4565"
       width="4.6103992"
       height="4.4767647"
       x="3.0519373"
       y="2.8681931" />
  </g>
  <g
     inkscape:groupmode="layer"
     id="layer4"
     inkscape:label="chain"
     transform="translate(9.7275715,0.24081217)" />
  <g
     inkscape:groupmode="layer"
     id="layer3"
     inkscape:label="arrow"
     transform="translate(9.7275715,0.24081217)">
    <g
       id="g4621">
      <path
         transform="scale(0.26458333)"
         id="text4577"
         d="m -27.056641,-0.91015625 c -1.696428,0 -3.325893,0.64815852 -4.53125,1.85351563 l -3.28125,3.25976562 c -1.205357,1.1830357 -1.896484,2.8348215 -1.896484,4.53125 0,1.71875 0.647321,3.325056 1.875,4.552734 l 4.642578,4.642579 c 0.762098,0.762097 1.703235,1.309432 2.720703,1.609374 v -4.958984 l -4.328125,-4.328125 c -0.401785,-0.4017856 -0.625,-0.9372209 -0.625,-1.517578 0,-0.5580357 0.223215,-1.094308 0.625,-1.4960938 l 3.28125,-3.2597656 c 0.401786,-0.3794642 0.959543,-0.6015625 1.517578,-0.6015625 0.558036,0 1.115793,0.2232143 1.517579,0.625 l 2.742187,2.7539063 h 5.791016 c -0.253187,-0.4111967 -0.54962,-0.797667 -0.898438,-1.1464844 l -4.597656,-4.62109375 c -1.205357,-1.22767853 -2.835938,-1.8984375 -4.554688,-1.8984375 z M -7.9550781,15.808594 v 5.841797 l 2.7070312,2.708984 c 0.4017857,0.401786 0.625,0.937221 0.625,1.517578 0,0.558036 -0.2232143,1.092355 -0.625,1.494141 l -3.28125,3.259765 c -0.4017857,0.379465 -0.9595424,0.580079 -1.5175781,0.580079 -0.558036,0 -1.115792,-0.199777 -1.517578,-0.601563 l -0.996094,-1 h -6.033203 l 3.992188,4.011719 c 1.205357,1.227678 2.835937,1.898437 4.554687,1.898437 1.6964285,0 3.3258929,-0.648158 4.53125,-1.853515 l 3.28125,-3.257813 c 1.2053571,-1.183036 1.89648438,-2.834821 1.89648438,-4.53125 0,-1.71875 -0.64732147,-3.327009 -1.87499998,-4.554687 l -4.6425782,-4.642578 c -0.3343511,-0.334352 -0.7051338,-0.622041 -1.0996093,-0.871094 z"
         style="font-style:normal;font-variant:normal;font-weight:normal;font-stretch:normal;font-size:10.58333302px;line-height:125%;font-family:FontAwesome;-inkscape-font-specification:FontAwesome;letter-spacing:0px;word-spacing:0px;fill:#000000;fill-opacity:1;stroke:none;stroke-width:0.99999994px;stroke-linecap:butt;stroke-linejoin:miter;stroke-opacity:1"
         inkscape:connector-curvature="0" />
      <g
         id="text4572"
         style="font-style:normal;font-variant:normal;font-weight:normal;font-stretch:normal;font-size:5.66208744px;line-height:125%;font-family:FontAwesome;-inkscape-font-specification:FontAwesome;letter-spacing:0px;word-spacing:0px;fill:#000000;fill-opacity:1;stroke:none;stroke-width:0.14155218px;stroke-linecap:butt;stroke-linejoin:miter;stroke-opacity:1"
         aria-label="ï ">
        <path
           id="path4614"
           style="stroke-width:0.14155218px"
           d="m -2.3543442,4.5655644 c 0,-0.214856 -0.1421841,-0.4044348 -0.3696787,-0.4044348 H -4.9484144 L -4.0226378,3.235353 c 0.075832,-0.075832 0.1200666,-0.1800998 0.1200666,-0.2875278 0,-0.107428 -0.044235,-0.2116964 -0.1200666,-0.2875279 L -4.2596113,2.4264834 c -0.075831,-0.075832 -0.1769402,-0.1200666 -0.2843682,-0.1200666 -0.107428,0 -0.2116964,0.044235 -0.2875279,0.1200666 L -6.8884376,4.480254 c -0.072672,0.075831 -0.116907,0.1800998 -0.116907,0.2875278 0,0.107428 0.044235,0.2116964 0.116907,0.2843683 l 2.0569302,2.0600898 c 0.075831,0.072672 0.1800999,0.116907 0.2875279,0.116907 0.107428,0 0.2116963,-0.044235 0.2843682,-0.116907 l 0.2369735,-0.2401332 c 0.075832,-0.072672 0.1200666,-0.1769402 0.1200666,-0.2843682 0,-0.107428 -0.044235,-0.2116963 -0.1200666,-0.2843682 L -4.9484144,5.3744341 h 2.2243915 c 0.2274946,0 0.3696787,-0.1895789 0.3696787,-0.4044349 z"
           inkscape:connector-curvature="0" />
      </g>
    </g>
  </g>
</svg>
