<?xml version="1.0" encoding="UTF-8" standalone="no"?>
<!-- Created with Inkscape (http://www.inkscape.org/) -->

<svg
   xmlns:dc="http://purl.org/dc/elements/1.1/"
   xmlns:cc="http://creativecommons.org/ns#"
   xmlns:rdf="http://www.w3.org/1999/02/22-rdf-syntax-ns#"
   xmlns:svg="http://www.w3.org/2000/svg"
   xmlns="http://www.w3.org/2000/svg"
   xmlns:sodipodi="http://sodipodi.sourceforge.net/DTD/sodipodi-0.dtd"
   xmlns:inkscape="http://www.inkscape.org/namespaces/inkscape"
   width="11.064036mm"
   height="12.384683mm"
   viewBox="0 0 11.064036 12.384683"
   version="1.1"
   id="svg8"
   inkscape:version="0.92.1 r15371"
   sodipodi:docname="professional-roles-and-finalize1.svg">
  <defs
     id="defs2" />
  <sodipodi:namedview
     id="base"
     pagecolor="#ffffff"
     bordercolor="#666666"
     borderopacity="1.0"
     inkscape:pageopacity="0.0"
     inkscape:pageshadow="2"
     inkscape:zoom="11.2"
     inkscape:cx="21.665313"
     inkscape:cy="19.017858"
     inkscape:document-units="mm"
     inkscape:current-layer="layer8"
     showgrid="false"
     inkscape:window-width="1920"
     inkscape:window-height="1017"
     inkscape:window-x="-8"
     inkscape:window-y="-8"
     inkscape:window-maximized="1" />
  <metadata
     id="metadata5">
    <rdf:RDF>
      <cc:Work
         rdf:about="">
        <dc:format>image/svg+xml</dc:format>
        <dc:type
           rdf:resource="http://purl.org/dc/dcmitype/StillImage" />
        <dc:title></dc:title>
      </cc:Work>
    </rdf:RDF>
  </metadata>
  <g
     inkscape:groupmode="layer"
     id="layer8"
     inkscape:label="Flag"
     style="display:inline"
     transform="translate(0.71207925,0.34057205)">
    <g
       inkscape:groupmode="layer"
       id="layer2"
       inkscape:label="User-Secret"
       style="display:inline"
       transform="translate(-0.71207925,-0.34057205)">
      <flowRoot
         xml:space="preserve"
         id="flowRoot3736"
         style="font-style:normal;font-variant:normal;font-weight:normal;font-stretch:normal;font-size:40px;line-height:1.25;font-family:FontAwesome;-inkscape-font-specification:FontAwesome;letter-spacing:0px;word-spacing:0px;fill:#000000;fill-opacity:1;stroke:none"><flowRegion
           id="flowRegion3738"
           style="font-style:normal;font-variant:normal;font-weight:normal;font-stretch:normal;font-family:FontAwesome;-inkscape-font-specification:FontAwesome"><rect
             id="rect3740"
             width="47.67857"
             height="42.589287"
             x="-1.4285715"
             y="1.2725351"
             style="font-style:normal;font-variant:normal;font-weight:normal;font-stretch:normal;font-family:FontAwesome;-inkscape-font-specification:FontAwesome" /></flowRegion><flowPara
           id="flowPara3742"></flowPara></flowRoot>      <flowRoot
         xml:space="preserve"
         id="flowRoot3752"
         style="font-style:normal;font-weight:normal;font-size:40px;line-height:1.25;font-family:sans-serif;letter-spacing:0px;word-spacing:0px;fill:#000000;fill-opacity:1;stroke:none"
         transform="scale(0.26458333)"><flowRegion
           id="flowRegion3754"><rect
             id="rect3756"
             width="42.426407"
             height="41.921329"
             x="-0.25253814"
             y="1.8564612" /></flowRegion><flowPara
           id="flowPara3758"></flowPara></flowRoot>      <g
         aria-label=""
         transform="scale(0.94539753,1.0577561)"
         style="font-style:normal;font-variant:normal;font-weight:normal;font-stretch:normal;font-size:5.26729584px;line-height:1.25;font-family:FontAwesome;-inkscape-font-specification:FontAwesome;letter-spacing:0px;word-spacing:0px;fill:#000000;fill-opacity:1;stroke:none;stroke-width:0.26458332"
         id="text3762">
        <path
           d="M 8.7396507,10.997209 8.3634152,9.1160315 8.7396507,9.3041492 9.0218272,9.6803846 Z m 0.7524708,0 L 9.2099449,9.6803846 9.4921215,9.3041492 9.8683569,9.1160315 Z M 9.9624158,8.028476 c -0.00294,0.026454 -0.00588,0.052908 -0.011757,0.079362 -0.017636,0.023515 -0.032333,0.014697 -0.04409,0.049969 C 9.8301455,8.3665 9.7948734,8.5281637 9.5303329,8.5281637 c -0.3791748,0 -0.2733585,-0.3497814 -0.3968108,-0.3497814 H 9.09825 c -0.1234522,0 -0.017636,0.3497814 -0.3968108,0.3497814 -0.2645405,0 -0.2998125,-0.1616637 -0.3762354,-0.3703568 -0.011757,-0.035272 -0.026454,-0.026454 -0.04409,-0.049969 -0.00588,-0.026454 -0.00882,-0.052908 -0.011757,-0.079362 0.00294,-0.00588 0.00588,-0.011757 0.011757,-0.017636 0.026454,-0.020575 0.2380865,-0.023515 0.2821766,-0.023515 0.1675423,0 0.3262667,0.023515 0.4908697,0.055847 0.020575,0.00588 0.041151,0.00588 0.061726,0.00588 0.020575,0 0.041151,0 0.061726,-0.00588 0.164603,-0.032333 0.3233273,-0.055847 0.4908696,-0.055847 0.04409,0 0.2557226,0.00294 0.2821766,0.023515 0.00588,0.00588 0.00882,0.011757 0.011757,0.017636 z m 1.2227652,2.583679 c 0,-0.523202 -0.09112,-1.3138845 -0.617261,-1.587243 l 0.241025,-0.6613513 h -0.629018 c 0.05291,-0.1528457 0.07348,-0.31157 0.05879,-0.4702943 0.114634,-0.023515 0.570231,-0.1175736 0.570231,-0.2821766 0,-0.173421 -0.499687,-0.2674798 -0.617261,-0.2909945 C 10.129958,7.0996448 9.9829911,6.7645602 9.8330848,6.5911391 9.7742981,6.5235343 9.7008146,6.4823836 9.6096951,6.4823836 c -0.1763604,0 -0.3174487,0.182239 -0.493809,0.182239 -0.1763604,0 -0.3174487,-0.182239 -0.493809,-0.182239 -0.091119,0 -0.164603,0.041151 -0.2233898,0.1087555 C 8.248781,6.7645602 8.1018141,7.0996448 8.0400879,7.3200953 7.9225144,7.34361 7.4228267,7.4376688 7.4228267,7.6110898 c 0,0.164603 0.4555976,0.2586619 0.5702318,0.2821766 -0.00294,0.029393 -0.00588,0.061726 -0.00588,0.094059 0,0.1293309 0.023515,0.2557225 0.064666,0.3762354 H 7.4228267 L 7.6873672,9.0102153 C 7.1406501,9.2747558 7.0465913,10.080135 7.0465913,10.612155 c 0,0.479112 0.3145093,0.761289 0.7848035,0.761289 h 2.5689822 c 0.470295,0 0.784804,-0.282177 0.784804,-0.761289 z"
           style="stroke-width:0.26458332"
           id="path3775" />
      </g>
    </g>
    <g
       transform="matrix(0.26458333,0,0,0.26458333,-0.71207925,-0.34057205)"
       style="font-style:normal;font-weight:normal;font-size:40px;line-height:1.25;font-family:sans-serif;letter-spacing:0px;word-spacing:0px;fill:#000000;fill-opacity:1;stroke:none"
       id="flowRoot3723" />
    <g
       aria-label=""
       transform="scale(0.93647436,1.0678349)"
       style="font-style:normal;font-variant:normal;font-weight:normal;font-stretch:normal;font-size:9.96263981px;line-height:1.25;font-family:FontAwesome;-inkscape-font-specification:FontAwesome;letter-spacing:0px;word-spacing:0px;fill:#000000;fill-opacity:1;stroke:none;stroke-width:0.28907138"
       id="text3733">
      <path
         d="M 3.6606757,4.6672748 C 2.9712966,4.7228699 2.1707273,4.9786073 1.5258243,5.2788207 V 4.2503116 C 2.1651678,3.9334196 2.9824156,3.6610037 3.6606757,3.5998491 Z m 0,-2.3238747 C 2.9712966,2.3711976 2.1818463,2.6602921 1.5258243,2.9994221 V 1.948675 C 2.1373703,1.6095449 2.9601776,1.2815339 3.6606757,1.2481768 Z M 8.286187,4.9174527 C 7.9414975,5.1009165 7.2743564,5.4289275 6.657251,5.4289275 c -0.1890233,0 -0.3558086,-0.033357 -0.5059154,-0.094512 V 4.2892282 C 6.079062,4.2669901 6.0067884,4.2391926 5.9345148,4.2058355 5.2951713,3.8889435 4.6057922,3.5887301 3.7663064,3.5887301 c -0.033357,0 -0.066714,0 -0.1056307,0 v -1.234211 c 0.094512,-0.011119 0.1834638,-0.016679 0.2724159,-0.016679 0.8394859,0 1.3620797,0.3002134 2.0014232,0.622665 0.072274,0.033357 0.1445472,0.061155 0.2168208,0.083393 v 1.24533 C 6.8963098,4.517168 7.7802717,4.1446809 8.286187,3.894503 Z m 0,-2.3739103 C 7.7802717,2.8270773 6.8963098,3.2551595 6.1513356,3.0438982 V 1.9542345 c 0.1389878,0.033357 0.283535,0.044476 0.4336417,0.044476 0.633784,0 1.256449,-0.2668564 1.7012097,-0.5059153 z M 0.81420718,0.53100021 c 0,-0.39472513 -0.316892,-0.71161713 -0.71161713,-0.71161713 -0.39472513,0 -0.71161713,0.316892 -0.71161713,0.71161713 0,0.26129691 0.14454723,0.48923679 0.35580857,0.61154599 v 7.0383381 c 0,0.1000712 0.0778331,0.1779043 0.17790428,0.1779043 h 0.35580856 c 0.10007116,0 0.17790428,-0.077833 0.17790428,-0.1779043 V 1.1425462 C 0.66965995,1.020237 0.81420718,0.79229712 0.81420718,0.53100021 Z M 8.9978042,0.88680877 c 0,-0.12230919 -0.066714,-0.23905888 -0.1723448,-0.30577299 C 8.7198287,0.51988119 8.59196,0.51432168 8.4807698,0.56991677 8.4418533,0.5921548 8.3806987,0.62551186 8.3084251,0.66442842 7.9637355,0.87013024 7.2409994,1.2870934 6.5849773,1.2870934 c -0.1834638,0 -0.350249,-0.033357 -0.4947962,-0.1056307 C 5.4508375,0.87013024 4.6947443,0.53100021 3.7663064,0.53100021 c -1.1674969,0 -2.4239459,0.69493859 -2.77975445,0.90619989 -0.10563066,0.066714 -0.17234477,0.1834638 -0.17234477,0.305773 v 4.1251556 c 0,0.1278687 0.0667141,0.2446184 0.17790428,0.3113325 0.055595,0.027797 0.11674964,0.044476 0.17790424,0.044476 0.061155,0 0.1278687,-0.016679 0.1834638,-0.050035 0.6504626,-0.3947252 1.7790429,-0.8116883 2.5796121,-0.8116883 0.6838196,0 1.1285803,0.2223803 1.6900907,0.5059153 l 0.1556663,0.077833 c 0.2557374,0.1278687 0.5503913,0.1945828 0.8784024,0.1945828 0.8561643,0 1.6956501,-0.4558797 2.0514587,-0.644903 0.038917,-0.022238 0.072274,-0.038917 0.094512,-0.050036 C 8.919971,5.3844514 8.9978042,5.2621422 8.9978042,5.128714 Z"
         style="font-style:normal;font-variant:normal;font-weight:normal;font-stretch:normal;font-family:FontAwesome;-inkscape-font-specification:FontAwesome;stroke-width:0.28907138"
         id="path3779" />
    </g>
  </g>
  <text
     xml:space="preserve"
     style="font-style:normal;font-variant:normal;font-weight:normal;font-stretch:normal;font-size:10.58333302px;line-height:125%;font-family:FontAwesome;-inkscape-font-specification:FontAwesome;letter-spacing:0px;word-spacing:0px;fill:#000000;fill-opacity:1;stroke:none;stroke-width:0.26458332px;stroke-linecap:butt;stroke-linejoin:miter;stroke-opacity:1"
     x="37.589031"
     y="39.958004"
     id="text59"><tspan
       sodipodi:role="line"
       id="tspan57"
       x="37.589031"
       y="50.352348"
       style="fill:#000000;stroke-width:0.26458332px" /></text>
</svg>
