<?xml version="1.0" encoding="UTF-8" standalone="no"?>
<!-- Created with Inkscape (http://www.inkscape.org/) -->

<svg
   xmlns:dc="http://purl.org/dc/elements/1.1/"
   xmlns:cc="http://creativecommons.org/ns#"
   xmlns:rdf="http://www.w3.org/1999/02/22-rdf-syntax-ns#"
   xmlns:svg="http://www.w3.org/2000/svg"
   xmlns="http://www.w3.org/2000/svg"
   xmlns:sodipodi="http://sodipodi.sourceforge.net/DTD/sodipodi-0.dtd"
   xmlns:inkscape="http://www.inkscape.org/namespaces/inkscape"
   width="10.583333mm"
   height="9.4495525mm"
   viewBox="0 0 10.583333 9.4495525"
   version="1.1"
   id="svg8"
   inkscape:version="0.92.1 r15371"
   sodipodi:docname="mostraRelazioni.svg">
  <defs
     id="defs2" />
  <sodipodi:namedview
     id="base"
     pagecolor="#ffffff"
     bordercolor="#666666"
     borderopacity="1.0"
     inkscape:pageopacity="0.0"
     inkscape:pageshadow="2"
     inkscape:zoom="11.2"
     inkscape:cx="12.388414"
     inkscape:cy="16.668803"
     inkscape:document-units="mm"
     inkscape:current-layer="layer6"
     showgrid="false"
     inkscape:window-width="1920"
     inkscape:window-height="1018"
     inkscape:window-x="-8"
     inkscape:window-y="-8"
     inkscape:window-maximized="1" />
  <metadata
     id="metadata5">
    <rdf:RDF>
      <cc:Work
         rdf:about="">
        <dc:format>image/svg+xml</dc:format>
        <dc:type
           rdf:resource="http://purl.org/dc/dcmitype/StillImage" />
        <dc:title />
      </cc:Work>
    </rdf:RDF>
  </metadata>
  <text
     xml:space="preserve"
     style="font-style:normal;font-variant:normal;font-weight:normal;font-stretch:normal;font-size:10.58333302px;line-height:125%;font-family:FontAwesome;-inkscape-font-specification:FontAwesome;letter-spacing:0px;word-spacing:0px;fill:#000000;fill-opacity:1;stroke:none;stroke-width:0.26458332px;stroke-linecap:butt;stroke-linejoin:miter;stroke-opacity:1"
     x="24.054407"
     y="20.442936"
     id="text59"><tspan
       sodipodi:role="line"
       id="tspan57"
       x="24.054407"
       y="30.83728"
       style="fill:#000000;stroke-width:0.26458332px" /></text>
  <g
     inkscape:groupmode="layer"
     id="layer3"
     inkscape:label="Layer 1"
     transform="translate(-0.73483887,0.86971435)" />
  <g
     inkscape:groupmode="layer"
     id="layer5"
     inkscape:label="Layer 2"
     transform="translate(-0.73483887,0.86971435)" />
  <g
     inkscape:groupmode="layer"
     id="layer6"
     inkscape:label="Layer 3"
     transform="translate(-0.73483887,0.86971435)">
    <g
       id="g4593">
      <path
         inkscape:connector-curvature="0"
         id="text4567"
         transform="scale(0.26458333)"
         d="m 34.919922,-3.2871094 c -0.401786,0 -0.712891,0.3130581 -0.712891,0.7148438 v 4.2851562 h -5.714843 c -2.214482,0 -4.020114,0.5636022 -5.535157,1.5019532 h 7.453125 c 0.06995,0 0.125,0.055047 0.125,0.125 v 4.0878906 h 3.671875 v 4.2851566 c 0,0.401785 0.333427,0.714843 0.712891,0.714843 0.178571,0 0.379743,-0.06724 0.513672,-0.201172 l 7.142578,-7.1425776 c 0.133928,-0.1339286 0.201172,-0.3351005 0.201172,-0.5136719 0,-0.1785714 -0.06724,-0.3797433 -0.201172,-0.5136719 l -7.119141,-7.1210937 c -0.15625,-0.1339286 -0.336216,-0.2226563 -0.537109,-0.2226563 z m -31.4277345,5 c -0.4017857,0 -0.7148437,0.3130581 -0.7148437,0.7148438 v 4.2851562 c 0,0.4017857 0.313058,0.7148438 0.7148437,0.7148438 H 8.4824219 V 3.3398438 c 0,-0.069953 0.057,-0.125 0.1269531,-0.125 h 5.376953 C 12.410755,2.2492789 10.603112,1.7128906 8.4921875,1.7128906 Z M 34.919922,16.712891 c -0.401786,0 -0.712891,0.313058 -0.712891,0.714843 v 4.285157 h -3.671875 v 4.767578 c 0,0.06995 -0.05505,0.126953 -0.125,0.126953 h -6.113281 c 2.74616,1.106256 5.849778,0.820312 9.910156,0.820312 v 4.285157 c 0,0.379464 0.333427,0.714843 0.712891,0.714843 0.178571,0 0.379743,-0.06724 0.513672,-0.201172 l 7.142578,-7.142578 c 0.133928,-0.133928 0.201172,-0.3351 0.201172,-0.513672 0,-0.178571 -0.06724,-0.379743 -0.201172,-0.513671 l -7.119141,-7.121094 c -0.15625,-0.133929 -0.336216,-0.222656 -0.537109,-0.222656 z m -31.4277345,5 c -0.4017857,0 -0.7148437,0.313058 -0.7148437,0.714843 v 4.285157 c 0,0.401785 0.313058,0.714843 0.7148437,0.714843 h 5 c 1.6001465,0 2.9785005,-0.304808 4.1972655,-0.820312 H 8.609375 c -0.069953,0 -0.1269531,-0.057 -0.1269531,-0.126953 v -4.767578 z"
         style="font-style:normal;font-variant:normal;font-weight:normal;font-stretch:normal;font-size:10.58333302px;line-height:125%;font-family:FontAwesome;-inkscape-font-specification:FontAwesome;letter-spacing:0px;word-spacing:0px;fill:#000000;fill-opacity:1;stroke:none;stroke-width:0.99999994px;stroke-linecap:butt;stroke-linejoin:miter;stroke-opacity:1" />
      <g
         aria-label="ï®"
         transform="scale(0.94691006,1.0560665)"
         style="font-style:normal;font-variant:normal;font-weight:normal;font-stretch:normal;font-size:5.91544771px;line-height:125%;font-family:FontAwesome;-inkscape-font-specification:FontAwesome;letter-spacing:0px;word-spacing:0px;fill:#000000;fill-opacity:1;stroke:none;stroke-width:0.14788619px;stroke-linecap:butt;stroke-linejoin:miter;stroke-opacity:1"
         id="text4587">
        <path
           d="M 8.0625597,3.7804193 C 7.4980834,4.6518915 6.5869988,5.2592813 5.5273678,5.2592813 4.4677369,5.2592813 3.5566523,4.6518915 2.992176,3.7804193 3.3057739,3.2951678 3.7349079,2.8792378 4.2498688,2.6151554 4.1178276,2.8396255 4.0485059,3.0971059 4.0485059,3.3578874 c 0,0.8153546 0.6635073,1.4788619 1.4788619,1.4788619 0.8153547,0 1.478862,-0.6635073 1.478862,-1.4788619 0,-0.2607815 -0.069322,-0.5182619 -0.2013629,-0.742732 0.5149608,0.2640824 0.9440949,0.6800124 1.2576928,1.1652639 z M 5.6858173,2.5128234 c 0,0.085827 -0.072623,0.1584495 -0.1584495,0.1584495 -0.3763175,0 -0.6866144,0.3102969 -0.6866144,0.6866145 0,0.085827 -0.072623,0.1584494 -0.1584495,0.1584494 -0.085827,0 -0.1584495,-0.072623 -0.1584495,-0.1584494 0,-0.5512722 0.4522412,-1.0035135 1.0035134,-1.0035135 0.085827,0 0.1584495,0.072623 0.1584495,0.1584495 z m 2.7992744,1.2675959 c 0,-0.082526 -0.026408,-0.1584495 -0.066021,-0.2277711 C 7.8116813,2.5557368 6.6992339,1.8790254 5.5273678,1.8790254 c -1.171866,0 -2.2843135,0.6767114 -2.8917032,1.6736228 -0.039612,0.069322 -0.066021,0.1452454 -0.066021,0.2277711 0,0.082526 0.026408,0.1584495 0.066021,0.2277712 0.6073897,0.9969114 1.7198372,1.6736227 2.8917032,1.6736227 1.1718661,0 2.2843135,-0.6734103 2.8917033,-1.6736227 0.039612,-0.069322 0.066021,-0.1452454 0.066021,-0.2277712 z"
           style="stroke-width:0.14788619px"
           id="path4595" />
      </g>
    </g>
  </g>
</svg>
