<?xml version="1.0" encoding="UTF-8" standalone="no"?>
<!-- Created with Inkscape (http://www.inkscape.org/) -->

<svg
   xmlns:dc="http://purl.org/dc/elements/1.1/"
   xmlns:cc="http://creativecommons.org/ns#"
   xmlns:rdf="http://www.w3.org/1999/02/22-rdf-syntax-ns#"
   xmlns:svg="http://www.w3.org/2000/svg"
   xmlns="http://www.w3.org/2000/svg"
   xmlns:sodipodi="http://sodipodi.sourceforge.net/DTD/sodipodi-0.dtd"
   xmlns:inkscape="http://www.inkscape.org/namespaces/inkscape"
   width="10.583336mm"
   height="9.4495525mm"
   viewBox="0 0 10.583336 9.4495525"
   version="1.1"
   id="svg8"
   inkscape:version="0.92.1 r15371"
   sodipodi:docname="ricalcolaConServizio.svg">
  <defs
     id="defs2" />
  <sodipodi:namedview
     id="base"
     pagecolor="#ffffff"
     bordercolor="#666666"
     borderopacity="1.0"
     inkscape:pageopacity="0.0"
     inkscape:pageshadow="2"
     inkscape:zoom="11.2"
     inkscape:cx="12.388414"
     inkscape:cy="20.671979"
     inkscape:document-units="mm"
     inkscape:current-layer="layer6"
     showgrid="false"
     inkscape:window-width="1920"
     inkscape:window-height="1018"
     inkscape:window-x="-8"
     inkscape:window-y="-8"
     inkscape:window-maximized="1" />
  <metadata
     id="metadata5">
    <rdf:RDF>
      <cc:Work
         rdf:about="">
        <dc:format>image/svg+xml</dc:format>
        <dc:type
           rdf:resource="http://purl.org/dc/dcmitype/StillImage" />
        <dc:title></dc:title>
      </cc:Work>
    </rdf:RDF>
  </metadata>
  <text
     xml:space="preserve"
     style="font-style:normal;font-variant:normal;font-weight:normal;font-stretch:normal;font-size:10.58333302px;line-height:125%;font-family:FontAwesome;-inkscape-font-specification:FontAwesome;letter-spacing:0px;word-spacing:0px;fill:#000000;fill-opacity:1;stroke:none;stroke-width:0.26458332px;stroke-linecap:butt;stroke-linejoin:miter;stroke-opacity:1"
     x="24.054407"
     y="20.442936"
     id="text59"><tspan
       sodipodi:role="line"
       id="tspan57"
       x="24.054407"
       y="30.83728"
       style="fill:#000000;stroke-width:0.26458332px" /></text>
  <g
     inkscape:groupmode="layer"
     id="layer3"
     inkscape:label="Layer 1"
     transform="translate(-0.73483887,0.86971435)" />
  <g
     inkscape:groupmode="layer"
     id="layer5"
     inkscape:label="Layer 2"
     transform="translate(-0.73483887,0.86971435)" />
  <g
     inkscape:groupmode="layer"
     id="layer6"
     inkscape:label="Layer 3"
     transform="translate(-0.73483887,0.86971435)">
    <g
       id="g4608">
      <path
         inkscape:connector-curvature="0"
         id="text4567"
         d="m 9.2392292,-0.86971435 c -0.1063058,0 -0.188619,0.0828299 -0.188619,0.18913575 V 0.4532023 H 7.538558 c -0.585915,0 -1.0636552,0.14911975 -1.4645103,0.39739178 h 1.9719726 c 0.018508,0 0.033073,0.0145645 0.033073,0.0330729 V 1.9652547 h 0.9715169 v 1.133781 c 0,0.1063056 0.088219,0.1891355 0.188619,0.1891355 0.047247,0 0.1004737,-0.01779 0.1359091,-0.053227 l 1.8898067,-1.889807 c 0.03543,-0.035435 0.05323,-0.088662 0.05323,-0.135909 0,-0.047247 -0.01779,-0.1004737 -0.05323,-0.135909 L 9.3813393,-0.81080321 c -0.041341,-0.0354353 -0.088957,-0.0589111 -0.1421101,-0.0589111 z M 0.9239746,0.4532023 c -0.1063058,0 -0.18913573,0.0828299 -0.18913573,0.18913575 V 1.7761189 c 0,0.1063058 0.0828299,0.1891358 0.18913573,0.1891358 H 2.2443074 V 0.88366699 c 0,-0.0185084 0.015081,-0.0330729 0.03359,-0.0330729 H 3.7005492 C 3.2836789,0.5951217 2.8054067,0.4532023 2.2468912,0.4532023 Z m 8.3152546,3.9687501 c -0.1063058,0 -0.188619,0.08283 -0.188619,0.1891355 V 5.744869 H 8.0790933 v 1.2614217 c 0,0.018508 -0.014565,0.03359 -0.033073,0.03359 H 6.4285481 c 0.7265882,0.2926969 1.5477537,0.2170409 2.6220621,0.2170409 v 1.1337811 c 0,0.1003999 0.088219,0.1891355 0.188619,0.1891355 0.047247,0 0.1004737,-0.017791 0.1359091,-0.053227 L 11.264945,6.636804 c 0.03543,-0.035435 0.05323,-0.088662 0.05323,-0.135909 0,-0.047247 -0.01779,-0.1004737 -0.05323,-0.1359088 L 9.3813393,4.4808634 C 9.3399982,4.445428 9.2923822,4.4219524 9.2392292,4.4219524 Z M 0.9239746,5.744869 c -0.1063058,0 -0.18913573,0.08283 -0.18913573,0.1891355 v 1.1337812 c 0,0.1063056 0.0828299,0.1891355 0.18913573,0.1891355 h 1.3229166 c 0.4233721,0 0.7880616,-0.080647 1.1105265,-0.2170409 H 2.2778971 c -0.018508,0 -0.03359,-0.015081 -0.03359,-0.03359 V 5.744869 Z"
         style="font-style:normal;font-variant:normal;font-weight:normal;font-stretch:normal;font-size:10.58333302px;line-height:125%;font-family:FontAwesome;-inkscape-font-specification:FontAwesome;letter-spacing:0px;word-spacing:0px;fill:#000000;fill-opacity:1;stroke:none;stroke-width:0.26458332px;stroke-linecap:butt;stroke-linejoin:miter;stroke-opacity:1" />
      <g
         aria-label=""
         style="font-style:normal;font-variant:normal;font-weight:normal;font-stretch:normal;font-size:4.1813612px;line-height:125%;font-family:FontAwesome;-inkscape-font-specification:FontAwesome;letter-spacing:0px;word-spacing:0px;fill:#000000;fill-opacity:1;stroke:none;stroke-width:0.10453403px;stroke-linecap:butt;stroke-linejoin:miter;stroke-opacity:1"
         id="text4603">
        <path
           d="m 4.1349369,5.4547849 c 0,0.1656677 -0.1330009,0.2986686 -0.2986686,0.2986686 -0.1656678,0 -0.2986687,-0.1330009 -0.2986687,-0.2986686 0,-0.1656678 0.1330009,-0.2986687 0.2986687,-0.2986687 0.1656677,0 0.2986686,0.1330009 0.2986686,0.2986687 z m 0.896006,0 c 0,0.1656677 -0.1330009,0.2986686 -0.2986687,0.2986686 -0.1656677,0 -0.2986686,-0.1330009 -0.2986686,-0.2986686 0,-0.1656678 0.1330009,-0.2986687 0.2986686,-0.2986687 0.1656678,0 0.2986687,0.1330009 0.2986687,0.2986687 z m -0.896006,-0.896006 c 0,0.1656678 -0.1330009,0.2986687 -0.2986686,0.2986687 -0.1656678,0 -0.2986687,-0.1330009 -0.2986687,-0.2986687 0,-0.1656678 0.1330009,-0.2986687 0.2986687,-0.2986687 0.1656677,0 0.2986686,0.1330009 0.2986686,0.2986687 z m 1.792012,0.896006 c 0,0.1656677 -0.1330009,0.2986686 -0.2986687,0.2986686 -0.1656678,0 -0.2986687,-0.1330009 -0.2986687,-0.2986686 0,-0.1656678 0.1330009,-0.2986687 0.2986687,-0.2986687 0.1656678,0 0.2986687,0.1330009 0.2986687,0.2986687 z m -0.896006,-0.896006 c 0,0.1656678 -0.1330009,0.2986687 -0.2986687,0.2986687 -0.1656677,0 -0.2986686,-0.1330009 -0.2986686,-0.2986687 0,-0.1656678 0.1330009,-0.2986687 0.2986686,-0.2986687 0.1656678,0 0.2986687,0.1330009 0.2986687,0.2986687 z m -0.896006,-0.896006 c 0,0.1656678 -0.1330009,0.2986687 -0.2986686,0.2986687 -0.1656678,0 -0.2986687,-0.1330009 -0.2986687,-0.2986687 0,-0.1656677 0.1330009,-0.2986686 0.2986687,-0.2986686 0.1656677,0 0.2986686,0.1330009 0.2986686,0.2986686 z m 1.792012,0.896006 c 0,0.1656678 -0.1330009,0.2986687 -0.2986687,0.2986687 -0.1656678,0 -0.2986687,-0.1330009 -0.2986687,-0.2986687 0,-0.1656678 0.1330009,-0.2986687 0.2986687,-0.2986687 0.1656678,0 0.2986687,0.1330009 0.2986687,0.2986687 z m -0.896006,-0.896006 c 0,0.1656678 -0.1330009,0.2986687 -0.2986687,0.2986687 -0.1656677,0 -0.2986686,-0.1330009 -0.2986686,-0.2986687 0,-0.1656677 0.1330009,-0.2986686 0.2986686,-0.2986686 0.1656678,0 0.2986687,0.1330009 0.2986687,0.2986686 z m 1.7920119,1.792012 c 0,0.1633344 -0.1353342,0.2986686 -0.2986686,0.2986686 -0.1633345,0 -0.2986687,-0.1353342 -0.2986687,-0.2986686 v -0.896006 c 0,-0.1633344 0.1353342,-0.2986687 0.2986687,-0.2986687 0.1633344,0 0.2986686,0.1353343 0.2986686,0.2986687 z M 5.9269489,3.6627729 c 0,0.1656678 -0.1330009,0.2986687 -0.2986687,0.2986687 -0.1656678,0 -0.2986687,-0.1330009 -0.2986687,-0.2986687 0,-0.1656677 0.1330009,-0.2986686 0.2986687,-0.2986686 0.1656678,0 0.2986687,0.1330009 0.2986687,0.2986686 z M 6.8229548,2.9161013 c 0,0.081667 -0.067667,0.1493343 -0.1493343,0.1493343 H 3.6869339 c -0.081667,0 -0.1493343,-0.067667 -0.1493343,-0.1493343 V 2.318764 c 0,-0.081667 0.067667,-0.1493344 0.1493343,-0.1493344 h 2.9866866 c 0.081667,0 0.1493343,0.067667 0.1493343,0.1493344 z m 0,0.7466716 c 0,0.1656678 -0.1330009,0.2986687 -0.2986686,0.2986687 -0.1656678,0 -0.2986687,-0.1330009 -0.2986687,-0.2986687 0,-0.1656677 0.1330009,-0.2986686 0.2986687,-0.2986686 0.1656677,0 0.2986686,0.1330009 0.2986686,0.2986686 z M 7.1216235,2.1694296 c 0,-0.1633344 -0.1353343,-0.2986686 -0.2986687,-0.2986686 H 3.5375996 c -0.1633344,0 -0.2986687,0.1353342 -0.2986687,0.2986686 v 3.5840239 c 0,0.1633344 0.1353343,0.2986687 0.2986687,0.2986687 h 3.2853552 c 0.1633344,0 0.2986687,-0.1353343 0.2986687,-0.2986687 z"
           style="stroke-width:0.10453403px"
           id="path4610" />
      </g>
    </g>
  </g>
</svg>
